solid OpenSCAD_Model
  facet normal -1 0 0
    outer loop
      vertex -25 -7 0
      vertex -25 -7 8
      vertex -25 -2.5 0
    endloop
  endfacet
  facet normal -1 0 0
    outer loop
      vertex -25 -2.5 0
      vertex -25 -7 8
      vertex -25 -2.5 8
    endloop
  endfacet
  facet normal 0 -1 0
    outer loop
      vertex -19.761 -7 2.6992
      vertex -25 -7 0
      vertex -2.80083 -7 0
    endloop
  endfacet
  facet normal 0 -1 0
    outer loop
      vertex -8.20767 -7 1.97559
      vertex -25 -7 8
      vertex -2.80083 -7 0
    endloop
  endfacet
  facet normal 0 -1 0
    outer loop
      vertex -19.761 -7 2.6992
      vertex -20.0558 -7 2.59188
      vertex -25 -7 0
    endloop
  endfacet
  facet normal 0 -1 0
    outer loop
      vertex -25 -7 8
      vertex -25 -7 0
      vertex -22.3149 -7 4.17367
    endloop
  endfacet
  facet normal 0 -1 0
    outer loop
      vertex -18.8904 -7 3.56984
      vertex -19.0472 -7 3.29811
      vertex -2.80083 -7 0
    endloop
  endfacet
  facet normal 0 -1 0
    outer loop
      vertex -25 -7 8
      vertex -22.3149 -7 4.17367
      vertex -22.3149 -7 4.48743
    endloop
  endfacet
  facet normal 0 -1 0
    outer loop
      vertex -18.783 -7 3.86468
      vertex -18.8904 -7 3.56984
      vertex -2.80083 -7 0
    endloop
  endfacet
  facet normal 0 -1 0
    outer loop
      vertex -25 -7 8
      vertex -22.3149 -7 4.48743
      vertex -22.2604 -7 4.79643
    endloop
  endfacet
  facet normal 0 -1 0
    outer loop
      vertex -18.7286 -7 4.17367
      vertex -18.783 -7 3.86468
      vertex -2.80083 -7 0
    endloop
  endfacet
  facet normal 0 -1 0
    outer loop
      vertex -25 -7 8
      vertex -22.2604 -7 4.79643
      vertex -22.1531 -7 5.09126
    endloop
  endfacet
  facet normal 0 -1 0
    outer loop
      vertex -25 -7 8
      vertex -22.1531 -7 5.09126
      vertex -21.9962 -7 5.36299
    endloop
  endfacet
  facet normal 0 -1 0
    outer loop
      vertex -25 -7 8
      vertex -21.9962 -7 5.36299
      vertex -21.7945 -7 5.60334
    endloop
  endfacet
  facet normal 0 -1 0
    outer loop
      vertex -18.783 -7 4.79643
      vertex -18.7286 -7 4.48743
      vertex -2.80083 -7 0
    endloop
  endfacet
  facet normal 0 -1 0
    outer loop
      vertex -25 -7 8
      vertex -21.7945 -7 5.60334
      vertex -21.5542 -7 5.80502
    endloop
  endfacet
  facet normal 0 -1 0
    outer loop
      vertex -18.8904 -7 5.09126
      vertex -18.783 -7 4.79643
      vertex -2.80083 -7 0
    endloop
  endfacet
  facet normal 0 -1 0
    outer loop
      vertex -25 -7 8
      vertex -21.5542 -7 5.80502
      vertex -21.2824 -7 5.96191
    endloop
  endfacet
  facet normal 0 -1 0
    outer loop
      vertex -19.0472 -7 5.36299
      vertex -18.8904 -7 5.09126
      vertex -2.80083 -7 0
    endloop
  endfacet
  facet normal 0 -1 0
    outer loop
      vertex -25 -7 8
      vertex -21.2824 -7 5.96191
      vertex -20.9876 -7 6.06922
    endloop
  endfacet
  facet normal 0 -1 0
    outer loop
      vertex -19.2489 -7 5.60334
      vertex -19.0472 -7 5.36299
      vertex -2.80083 -7 0
    endloop
  endfacet
  facet normal 0 -1 0
    outer loop
      vertex -25 -7 8
      vertex -20.9876 -7 6.06922
      vertex -20.6786 -7 6.1237
    endloop
  endfacet
  facet normal 0 -1 0
    outer loop
      vertex -19.4893 -7 5.80502
      vertex -19.2489 -7 5.60334
      vertex -2.80083 -7 0
    endloop
  endfacet
  facet normal 0 -1 0
    outer loop
      vertex -25 -7 8
      vertex -20.6786 -7 6.1237
      vertex -20.3648 -7 6.1237
    endloop
  endfacet
  facet normal 0 -1 0
    outer loop
      vertex -25 -7 8
      vertex -20.0558 -7 6.06922
      vertex -2.80083 -7 0
    endloop
  endfacet
  facet normal 0 -1 0
    outer loop
      vertex -25 -7 8
      vertex -20.3648 -7 6.1237
      vertex -20.0558 -7 6.06922
    endloop
  endfacet
  facet normal 0 -1 0
    outer loop
      vertex -20.0558 -7 6.06922
      vertex -19.761 -7 5.96191
      vertex -2.80083 -7 0
    endloop
  endfacet
  facet normal 0 -1 0
    outer loop
      vertex -19.0472 -7 3.29811
      vertex -19.2489 -7 3.05776
      vertex -2.80083 -7 0
    endloop
  endfacet
  facet normal 0 -1 0
    outer loop
      vertex -19.2489 -7 3.05776
      vertex -19.4893 -7 2.85608
      vertex -2.80083 -7 0
    endloop
  endfacet
  facet normal 0 -1 0
    outer loop
      vertex -19.4893 -7 2.85608
      vertex -19.761 -7 2.6992
      vertex -2.80083 -7 0
    endloop
  endfacet
  facet normal 0 -1 0
    outer loop
      vertex -20.0558 -7 2.59188
      vertex -20.3648 -7 2.5374
      vertex -25 -7 0
    endloop
  endfacet
  facet normal 0 -1 0
    outer loop
      vertex -20.3648 -7 2.5374
      vertex -20.6786 -7 2.5374
      vertex -25 -7 0
    endloop
  endfacet
  facet normal 0 -1 0
    outer loop
      vertex -8.03336 -7 3.96798
      vertex -7.06269 -7 3.58905
      vertex 2.80083 -7 8
    endloop
  endfacet
  facet normal 0 -1 0
    outer loop
      vertex -20.9876 -7 2.59188
      vertex -25 -7 0
      vertex -20.6786 -7 2.5374
    endloop
  endfacet
  facet normal 0 -1 0
    outer loop
      vertex -21.2824 -7 2.6992
      vertex -25 -7 0
      vertex -20.9876 -7 2.59188
    endloop
  endfacet
  facet normal 0 -1 0
    outer loop
      vertex -21.5542 -7 2.85608
      vertex -25 -7 0
      vertex -21.2824 -7 2.6992
    endloop
  endfacet
  facet normal 0 -1 0
    outer loop
      vertex -21.7945 -7 3.05776
      vertex -25 -7 0
      vertex -21.5542 -7 2.85608
    endloop
  endfacet
  facet normal 0 -1 0
    outer loop
      vertex -21.9962 -7 3.29811
      vertex -25 -7 0
      vertex -21.7945 -7 3.05776
    endloop
  endfacet
  facet normal 0 -1 0
    outer loop
      vertex -22.1531 -7 3.56984
      vertex -25 -7 0
      vertex -21.9962 -7 3.29811
    endloop
  endfacet
  facet normal 0 -1 0
    outer loop
      vertex -22.2604 -7 3.86468
      vertex -25 -7 0
      vertex -22.1531 -7 3.56984
    endloop
  endfacet
  facet normal 0 -1 0
    outer loop
      vertex -22.3149 -7 4.17367
      vertex -25 -7 0
      vertex -22.2604 -7 3.86468
    endloop
  endfacet
  facet normal 0 -1 0
    outer loop
      vertex -9.52935 -7 3.09504
      vertex -25 -7 8
      vertex -9.17834 -7 2.35453
    endloop
  endfacet
  facet normal 0 -1 0
    outer loop
      vertex -9.05508 -7 3.76336
      vertex -25 -7 8
      vertex -9.52935 -7 3.09504
    endloop
  endfacet
  facet normal 0 -1 0
    outer loop
      vertex 2.80083 -7 8
      vertex -25 -7 8
      vertex -9.05508 -7 3.76336
    endloop
  endfacet
  facet normal 0 -1 0
    outer loop
      vertex -7.06269 -7 3.58905
      vertex -6.71168 -7 2.84853
      vertex 2.80083 -7 8
    endloop
  endfacet
  facet normal 0 -1 0
    outer loop
      vertex 2.80083 -7 8
      vertex -9.05508 -7 3.76336
      vertex -8.03336 -7 3.96798
    endloop
  endfacet
  facet normal 0 -1 0
    outer loop
      vertex -7.18595 -7 2.18021
      vertex -8.20767 -7 1.97559
      vertex -2.80083 -7 0
    endloop
  endfacet
  facet normal 0 -1 0
    outer loop
      vertex 2.80083 -7 8
      vertex -6.71168 -7 2.84853
      vertex -2.80083 -7 0
    endloop
  endfacet
  facet normal 0 -1 0
    outer loop
      vertex -6.71168 -7 2.84853
      vertex -7.18595 -7 2.18021
      vertex -2.80083 -7 0
    endloop
  endfacet
  facet normal 0 -1 0
    outer loop
      vertex -9.17834 -7 2.35453
      vertex -25 -7 8
      vertex -8.20767 -7 1.97559
    endloop
  endfacet
  facet normal 0 -1 0
    outer loop
      vertex -19.761 -7 5.96191
      vertex -19.4893 -7 5.80502
      vertex -2.80083 -7 0
    endloop
  endfacet
  facet normal 0 -1 0
    outer loop
      vertex -18.7286 -7 4.48743
      vertex -18.7286 -7 4.17367
      vertex -2.80083 -7 0
    endloop
  endfacet
  facet normal 0 0 -1
    outer loop
      vertex -25 -7 0
      vertex -25 -2.5 0
      vertex -2.80083 -7 0
    endloop
  endfacet
  facet normal 0 0 -1
    outer loop
      vertex -14.0951 -2.5625 0
      vertex -25 -2.5 0
      vertex -14.1848 -2.5 0
    endloop
  endfacet
  facet normal 0 0 -1
    outer loop
      vertex -14.0235 -2.61243 0
      vertex -25 -2.5 0
      vertex -14.0951 -2.5625 0
    endloop
  endfacet
  facet normal 0 0 -1
    outer loop
      vertex -2.80083 -7 0
      vertex -25 -2.5 0
      vertex -14.0235 -2.61243 0
    endloop
  endfacet
  facet normal 0 0 -1
    outer loop
      vertex -2.80083 -7 0
      vertex -14.0235 -2.61243 0
      vertex -13.2407 -2.91787 0
    endloop
  endfacet
  facet normal 0 0 -1
    outer loop
      vertex -2.80083 -7 0
      vertex -13.2407 -2.91787 0
      vertex -13.0895 -2.97685 0
    endloop
  endfacet
  facet normal 0 0 -1
    outer loop
      vertex -2.80083 -7 0
      vertex -12.0175 -3.1308 0
      vertex -11.2184 -3.05819 0
    endloop
  endfacet
  facet normal 0 0 -1
    outer loop
      vertex -2.80083 -7 0
      vertex -11.2184 -3.05819 0
      vertex -10.8792 -3.02738 0
    endloop
  endfacet
  facet normal 0 0 -1
    outer loop
      vertex -10.8792 -3.02738 0
      vertex -10.1721 -2.77582 0
      vertex -2.80083 -7 0
    endloop
  endfacet
  facet normal 0 0 -1
    outer loop
      vertex -10.1721 -2.77582 0
      vertex -9.77876 -2.6359 0
      vertex -2.80083 -7 0
    endloop
  endfacet
  facet normal 0 0 -1
    outer loop
      vertex -9.77876 -2.6359 0
      vertex -9.22411 -2.23319 0
      vertex -2.80083 -7 0
    endloop
  endfacet
  facet normal 0 0 -1
    outer loop
      vertex -9.22411 -2.23319 0
      vertex -8.84618 -1.95879 0
      vertex -2.80083 -7 0
    endloop
  endfacet
  facet normal 0 0 -1
    outer loop
      vertex -8.84618 -1.95879 0
      vertex -8.492 -1.44594 0
      vertex -2.80083 -7 0
    endloop
  endfacet
  facet normal 0 0 -1
    outer loop
      vertex -2.80083 -7 0
      vertex -8.492 -1.44594 0
      vertex -8.21614 -1.0465 0
    endloop
  endfacet
  facet normal 0 0 -1
    outer loop
      vertex -8.21614 -1.0465 0
      vertex -8.09391 -0.473417 0
      vertex -2.80083 -7 0
    endloop
  endfacet
  facet normal 0 0 -1
    outer loop
      vertex -8.09391 -0.473417 0
      vertex -7.99293 0 0
      vertex -2.80083 -7 0
    endloop
  endfacet
  facet normal 0 0 -1
    outer loop
      vertex -7.99293 0 0
      vertex -8.11635 0.57865 0
      vertex -2.80083 -7 0
    endloop
  endfacet
  facet normal 0 0 -1
    outer loop
      vertex -2.80083 -7 0
      vertex -8.11635 0.57865 0
      vertex -8.21614 1.0465 0
    endloop
  endfacet
  facet normal 0 0 -1
    outer loop
      vertex -8.21614 1.0465 0
      vertex -2.80083 7 0
      vertex -2.80083 -7 0
    endloop
  endfacet
  facet normal 0 0 -1
    outer loop
      vertex -8.58066 1.57432 0
      vertex -2.80083 7 0
      vertex -8.21614 1.0465 0
    endloop
  endfacet
  facet normal 0 0 -1
    outer loop
      vertex -8.84618 1.95879 0
      vertex -2.80083 7 0
      vertex -8.58066 1.57432 0
    endloop
  endfacet
  facet normal 0 0 -1
    outer loop
      vertex -9.42729 2.38071 0
      vertex -2.80083 7 0
      vertex -8.84618 1.95879 0
    endloop
  endfacet
  facet normal 0 0 -1
    outer loop
      vertex -9.77876 2.6359 0
      vertex -10.5306 2.90336 0
      vertex -10.8792 3.02738 0
    endloop
  endfacet
  facet normal 0 0 -1
    outer loop
      vertex -9.77876 2.6359 0
      vertex -2.80083 7 0
      vertex -9.42729 2.38071 0
    endloop
  endfacet
  facet normal 0 0 -1
    outer loop
      vertex -11.7371 3.10532 0
      vertex -25 7 0
      vertex -10.8792 3.02738 0
    endloop
  endfacet
  facet normal 0 0 -1
    outer loop
      vertex -25 2.5 0
      vertex -14.0235 2.61243 0
      vertex -14.1848 2.5 0
    endloop
  endfacet
  facet normal 0 0 -1
    outer loop
      vertex -13.0895 2.97685 0
      vertex -13.9297 2.64903 0
      vertex -14.0235 2.61243 0
    endloop
  endfacet
  facet normal 0 0 -1
    outer loop
      vertex -13.0895 2.97685 0
      vertex -14.0235 2.61243 0
      vertex -25 2.5 0
    endloop
  endfacet
  facet normal 0 0 -1
    outer loop
      vertex -13.0895 2.97685 0
      vertex -25 2.5 0
      vertex -12.0175 3.1308 0
    endloop
  endfacet
  facet normal 0 0 -1
    outer loop
      vertex -12.0175 3.1308 0
      vertex -25 2.5 0
      vertex -25 7 0
    endloop
  endfacet
  facet normal 0 0 -1
    outer loop
      vertex -12.0175 3.1308 0
      vertex -25 7 0
      vertex -11.7371 3.10532 0
    endloop
  endfacet
  facet normal 0 0 -1
    outer loop
      vertex -10.8792 3.02738 0
      vertex -25 7 0
      vertex -2.80083 7 0
    endloop
  endfacet
  facet normal 0 0 -1
    outer loop
      vertex -10.8792 3.02738 0
      vertex -2.80083 7 0
      vertex -9.77876 2.6359 0
    endloop
  endfacet
  facet normal 0 0 -1
    outer loop
      vertex -12.0175 -3.1308 0
      vertex -2.80083 -7 0
      vertex -13.0895 -2.97685 0
    endloop
  endfacet
  facet normal 1.2736e-016 1 1.81888e-016
    outer loop
      vertex -20.3648 -2.5 2.5374
      vertex -25 -2.5 0
      vertex -20.6786 -2.5 2.5374
    endloop
  endfacet
  facet normal 1.2736e-016 1 1.81888e-016
    outer loop
      vertex -25 -2.5 0
      vertex -13.2048 -2.5 4.06458
      vertex -13.832 -2.5 1.97023
    endloop
  endfacet
  facet normal 1.2736e-016 1 1.81888e-016
    outer loop
      vertex -25 -2.5 0
      vertex -13.832 -2.5 1.97023
      vertex -14.1848 -2.5 0
    endloop
  endfacet
  facet normal 1.2736e-016 1 1.81888e-016
    outer loop
      vertex -20.0558 -2.5 2.59188
      vertex -13.2048 -2.5 4.06458
      vertex -25 -2.5 0
    endloop
  endfacet
  facet normal 1.2736e-016 1 1.81888e-016
    outer loop
      vertex -19.761 -2.5 5.96191
      vertex -25 -2.5 8
      vertex -11.982 -2.5 8
    endloop
  endfacet
  facet normal 1.2736e-016 1 1.81888e-016
    outer loop
      vertex -25 -2.5 0
      vertex -25 -2.5 8
      vertex -22.3149 -2.5 4.17367
    endloop
  endfacet
  facet normal 1.2736e-016 1 1.81888e-016
    outer loop
      vertex -25 -2.5 0
      vertex -22.3149 -2.5 4.17367
      vertex -22.2604 -2.5 3.86468
    endloop
  endfacet
  facet normal 1.2736e-016 1 1.81888e-016
    outer loop
      vertex -25 -2.5 0
      vertex -22.2604 -2.5 3.86468
      vertex -22.1531 -2.5 3.56984
    endloop
  endfacet
  facet normal 1.2736e-016 1 1.81888e-016
    outer loop
      vertex -25 -2.5 0
      vertex -22.1531 -2.5 3.56984
      vertex -21.9962 -2.5 3.29811
    endloop
  endfacet
  facet normal 1.2736e-016 1 1.81888e-016
    outer loop
      vertex -25 -2.5 0
      vertex -21.9962 -2.5 3.29811
      vertex -21.7945 -2.5 3.05776
    endloop
  endfacet
  facet normal 1.2736e-016 1 1.81888e-016
    outer loop
      vertex -25 -2.5 0
      vertex -21.7945 -2.5 3.05776
      vertex -21.5542 -2.5 2.85608
    endloop
  endfacet
  facet normal 1.2736e-016 1 1.81888e-016
    outer loop
      vertex -25 -2.5 0
      vertex -21.5542 -2.5 2.85608
      vertex -21.2824 -2.5 2.6992
    endloop
  endfacet
  facet normal 1.2736e-016 1 1.81888e-016
    outer loop
      vertex -25 -2.5 0
      vertex -21.2824 -2.5 2.6992
      vertex -20.9876 -2.5 2.59188
    endloop
  endfacet
  facet normal 1.2736e-016 1 1.81888e-016
    outer loop
      vertex -19.2489 -2.5 3.05776
      vertex -12.2595 -2.5 7.22139
      vertex -19.4893 -2.5 2.85608
    endloop
  endfacet
  facet normal 1.2736e-016 1 1.81888e-016
    outer loop
      vertex -19.761 -2.5 2.6992
      vertex -13.2048 -2.5 4.06458
      vertex -20.0558 -2.5 2.59188
    endloop
  endfacet
  facet normal 1.2736e-016 1 1.81888e-016
    outer loop
      vertex -20.3648 -2.5 2.5374
      vertex -20.0558 -2.5 2.59188
      vertex -25 -2.5 0
    endloop
  endfacet
  facet normal 1.2736e-016 1 1.81888e-016
    outer loop
      vertex -19.4893 -2.5 2.85608
      vertex -13.2048 -2.5 4.06458
      vertex -19.761 -2.5 2.6992
    endloop
  endfacet
  facet normal 1.2736e-016 1 1.81888e-016
    outer loop
      vertex -12.2595 -2.5 7.22139
      vertex -13.2048 -2.5 4.06458
      vertex -19.4893 -2.5 2.85608
    endloop
  endfacet
  facet normal 1.2736e-016 1 1.81888e-016
    outer loop
      vertex -18.8904 -2.5 3.56984
      vertex -12.2595 -2.5 7.22139
      vertex -19.0472 -2.5 3.29811
    endloop
  endfacet
  facet normal 1.2736e-016 1 1.81888e-016
    outer loop
      vertex -12.2595 -2.5 7.22139
      vertex -19.2489 -2.5 3.05776
      vertex -19.0472 -2.5 3.29811
    endloop
  endfacet
  facet normal 1.2736e-016 1 1.81888e-016
    outer loop
      vertex -18.783 -2.5 3.86468
      vertex -11.982 -2.5 8
      vertex -18.8904 -2.5 3.56984
    endloop
  endfacet
  facet normal 1.2736e-016 1 1.81888e-016
    outer loop
      vertex -12.2595 -2.5 7.22139
      vertex -18.8904 -2.5 3.56984
      vertex -11.982 -2.5 8
    endloop
  endfacet
  facet normal 1.2736e-016 1 1.81888e-016
    outer loop
      vertex -18.7286 -2.5 4.48743
      vertex -11.982 -2.5 8
      vertex -18.7286 -2.5 4.17367
    endloop
  endfacet
  facet normal 1.2736e-016 1 1.81888e-016
    outer loop
      vertex -18.783 -2.5 4.79643
      vertex -11.982 -2.5 8
      vertex -18.7286 -2.5 4.48743
    endloop
  endfacet
  facet normal 1.2736e-016 1 1.81888e-016
    outer loop
      vertex -18.8904 -2.5 5.09126
      vertex -11.982 -2.5 8
      vertex -18.783 -2.5 4.79643
    endloop
  endfacet
  facet normal 1.2736e-016 1 1.81888e-016
    outer loop
      vertex -19.0472 -2.5 5.36299
      vertex -11.982 -2.5 8
      vertex -18.8904 -2.5 5.09126
    endloop
  endfacet
  facet normal 1.2736e-016 1 1.81888e-016
    outer loop
      vertex -19.2489 -2.5 5.60334
      vertex -11.982 -2.5 8
      vertex -19.0472 -2.5 5.36299
    endloop
  endfacet
  facet normal 1.2736e-016 1 1.81888e-016
    outer loop
      vertex -20.3648 -2.5 6.1237
      vertex -25 -2.5 8
      vertex -20.0558 -2.5 6.06922
    endloop
  endfacet
  facet normal 1.2736e-016 1 1.81888e-016
    outer loop
      vertex -20.6786 -2.5 6.1237
      vertex -25 -2.5 8
      vertex -20.3648 -2.5 6.1237
    endloop
  endfacet
  facet normal 1.2736e-016 1 1.81888e-016
    outer loop
      vertex -19.2489 -2.5 5.60334
      vertex -19.4893 -2.5 5.80502
      vertex -11.982 -2.5 8
    endloop
  endfacet
  facet normal 1.2736e-016 1 1.81888e-016
    outer loop
      vertex -20.0558 -2.5 6.06922
      vertex -25 -2.5 8
      vertex -19.761 -2.5 5.96191
    endloop
  endfacet
  facet normal 1.2736e-016 1 1.81888e-016
    outer loop
      vertex -19.4893 -2.5 5.80502
      vertex -19.761 -2.5 5.96191
      vertex -11.982 -2.5 8
    endloop
  endfacet
  facet normal 1.2736e-016 1 1.81888e-016
    outer loop
      vertex -20.9876 -2.5 6.06922
      vertex -25 -2.5 8
      vertex -20.6786 -2.5 6.1237
    endloop
  endfacet
  facet normal 1.2736e-016 1 1.81888e-016
    outer loop
      vertex -21.2824 -2.5 5.96191
      vertex -25 -2.5 8
      vertex -20.9876 -2.5 6.06922
    endloop
  endfacet
  facet normal 1.2736e-016 1 1.81888e-016
    outer loop
      vertex -21.5542 -2.5 5.80502
      vertex -25 -2.5 8
      vertex -21.2824 -2.5 5.96191
    endloop
  endfacet
  facet normal 1.2736e-016 1 1.81888e-016
    outer loop
      vertex -21.7945 -2.5 5.60334
      vertex -25 -2.5 8
      vertex -21.5542 -2.5 5.80502
    endloop
  endfacet
  facet normal 1.2736e-016 1 1.81888e-016
    outer loop
      vertex -21.9962 -2.5 5.36299
      vertex -25 -2.5 8
      vertex -21.7945 -2.5 5.60334
    endloop
  endfacet
  facet normal 1.2736e-016 1 1.81888e-016
    outer loop
      vertex -22.1531 -2.5 5.09126
      vertex -25 -2.5 8
      vertex -21.9962 -2.5 5.36299
    endloop
  endfacet
  facet normal 1.2736e-016 1 1.81888e-016
    outer loop
      vertex -22.2604 -2.5 4.79643
      vertex -25 -2.5 8
      vertex -22.1531 -2.5 5.09126
    endloop
  endfacet
  facet normal 1.2736e-016 1 1.81888e-016
    outer loop
      vertex -22.3149 -2.5 4.48743
      vertex -25 -2.5 8
      vertex -22.2604 -2.5 4.79643
    endloop
  endfacet
  facet normal 1.2736e-016 1 1.81888e-016
    outer loop
      vertex -22.3149 -2.5 4.17367
      vertex -25 -2.5 8
      vertex -22.3149 -2.5 4.48743
    endloop
  endfacet
  facet normal 1.2736e-016 1 1.81888e-016
    outer loop
      vertex -20.6786 -2.5 2.5374
      vertex -25 -2.5 0
      vertex -20.9876 -2.5 2.59188
    endloop
  endfacet
  facet normal 1.2736e-016 1 1.81888e-016
    outer loop
      vertex -18.7286 -2.5 4.17367
      vertex -11.982 -2.5 8
      vertex -18.783 -2.5 3.86468
    endloop
  endfacet
  facet normal 0 0 1
    outer loop
      vertex -5.97558 -5.63915 8
      vertex -25 -7 8
      vertex 2.80083 -7 8
    endloop
  endfacet
  facet normal 0 0 1
    outer loop
      vertex 1.27344 0 8
      vertex 0.882902 -1.83095 8
      vertex 2.80083 -7 8
    endloop
  endfacet
  facet normal 0 0 1
    outer loop
      vertex -25 2.5 8
      vertex -11.982 2.5 8
      vertex -11.9292 2.61313 8
    endloop
  endfacet
  facet normal 0 0 1
    outer loop
      vertex -25 2.5 8
      vertex -11.9292 2.61313 8
      vertex -11.2076 3.45344 8
    endloop
  endfacet
  facet normal 0 0 1
    outer loop
      vertex -25 2.5 8
      vertex -11.2076 3.45344 8
      vertex -10.9437 3.76089 8
    endloop
  endfacet
  facet normal 0 0 1
    outer loop
      vertex -25 2.5 8
      vertex -10.9437 3.76089 8
      vertex -9.90902 4.48218 8
    endloop
  endfacet
  facet normal 0 0 1
    outer loop
      vertex -25 2.5 8
      vertex -9.90902 4.48218 8
      vertex -9.58871 4.70547 8
    endloop
  endfacet
  facet normal 0 0 1
    outer loop
      vertex -25 7 8
      vertex -25 2.5 8
      vertex -8.23959 5.23189 8
    endloop
  endfacet
  facet normal 0 0 1
    outer loop
      vertex -25 7 8
      vertex -7.90649 5.36186 8
      vertex 2.80083 7 8
    endloop
  endfacet
  facet normal 0 0 1
    outer loop
      vertex -25 7 8
      vertex -8.23959 5.23189 8
      vertex -7.90649 5.36186 8
    endloop
  endfacet
  facet normal 0 0 1
    outer loop
      vertex -7.90649 5.36186 8
      vertex -5.97558 5.63915 8
      vertex 2.80083 7 8
    endloop
  endfacet
  facet normal 0 0 1
    outer loop
      vertex -4.16023 5.47421 8
      vertex -3.92534 5.45287 8
      vertex 2.80083 7 8
    endloop
  endfacet
  facet normal 0 0 1
    outer loop
      vertex -5.70424 -5.6145 8
      vertex -5.97558 -5.63915 8
      vertex 2.80083 -7 8
    endloop
  endfacet
  facet normal 0 0 1
    outer loop
      vertex -7.90649 -5.36186 8
      vertex -9.24225 -4.84066 8
      vertex -25 -2.5 8
    endloop
  endfacet
  facet normal 0 0 1
    outer loop
      vertex 2.80083 7 8
      vertex -2.09684 4.80241 8
      vertex -1.94317 4.74774 8
    endloop
  endfacet
  facet normal 0 0 1
    outer loop
      vertex 2.80083 7 8
      vertex -1.94317 4.74774 8
      vertex -0.345018 3.58739 8
    endloop
  endfacet
  facet normal 0 0 1
    outer loop
      vertex 0.871387 -1.88493 8
      vertex -0.213699 -3.45614 8
      vertex 2.80083 -7 8
    endloop
  endfacet
  facet normal 0 0 1
    outer loop
      vertex 2.80083 7 8
      vertex -0.345018 3.58739 8
      vertex -0.263427 3.52815 8
    endloop
  endfacet
  facet normal 0 0 1
    outer loop
      vertex 2.80083 7 8
      vertex -0.263427 3.52815 8
      vertex 0.837049 1.93465 8
    endloop
  endfacet
  facet normal 0 0 1
    outer loop
      vertex 2.80083 7 8
      vertex 0.871387 1.88493 8
      vertex 2.80083 -7 8
    endloop
  endfacet
  facet normal 0 0 1
    outer loop
      vertex 2.80083 7 8
      vertex 0.837049 1.93465 8
      vertex 0.871387 1.88493 8
    endloop
  endfacet
  facet normal 0 0 1
    outer loop
      vertex 0.871387 1.88493 8
      vertex 1.26391 0.0446761 8
      vertex 2.80083 -7 8
    endloop
  endfacet
  facet normal 0 0 1
    outer loop
      vertex 1.26391 0.0446761 8
      vertex 1.27344 0 8
      vertex 2.80083 -7 8
    endloop
  endfacet
  facet normal 0 0 1
    outer loop
      vertex 0.882902 -1.83095 8
      vertex 0.871387 -1.88493 8
      vertex 2.80083 -7 8
    endloop
  endfacet
  facet normal 0 0 1
    outer loop
      vertex -0.213699 -3.45614 8
      vertex -0.263427 -3.52815 8
      vertex 2.80083 -7 8
    endloop
  endfacet
  facet normal 0 0 1
    outer loop
      vertex -0.263427 -3.52815 8
      vertex -1.82981 -4.66544 8
      vertex 2.80083 -7 8
    endloop
  endfacet
  facet normal 0 0 1
    outer loop
      vertex -1.82981 -4.66544 8
      vertex -1.94317 -4.74774 8
      vertex 2.80083 -7 8
    endloop
  endfacet
  facet normal 0 0 1
    outer loop
      vertex -1.94317 -4.74774 8
      vertex -3.73172 -5.38399 8
      vertex 2.80083 -7 8
    endloop
  endfacet
  facet normal 0 0 1
    outer loop
      vertex -3.73172 -5.38399 8
      vertex -3.92534 -5.45287 8
      vertex 2.80083 -7 8
    endloop
  endfacet
  facet normal 0 0 1
    outer loop
      vertex -3.92534 -5.45287 8
      vertex -5.70424 -5.6145 8
      vertex 2.80083 -7 8
    endloop
  endfacet
  facet normal 0 0 1
    outer loop
      vertex -7.90649 -5.36186 8
      vertex -25 -7 8
      vertex -5.97558 -5.63915 8
    endloop
  endfacet
  facet normal 0 0 1
    outer loop
      vertex -9.58871 -4.70547 8
      vertex -10.6186 -3.9875 8
      vertex -25 -2.5 8
    endloop
  endfacet
  facet normal 0 0 1
    outer loop
      vertex -25 -2.5 8
      vertex -25 -7 8
      vertex -7.90649 -5.36186 8
    endloop
  endfacet
  facet normal 0 0 1
    outer loop
      vertex -9.58871 -4.70547 8
      vertex -25 -2.5 8
      vertex -9.24225 -4.84066 8
    endloop
  endfacet
  facet normal 0 0 1
    outer loop
      vertex -10.6186 -3.9875 8
      vertex -10.9437 -3.76089 8
      vertex -25 -2.5 8
    endloop
  endfacet
  facet normal 0 0 1
    outer loop
      vertex -10.9437 -3.76089 8
      vertex -11.6645 -2.92134 8
      vertex -25 -2.5 8
    endloop
  endfacet
  facet normal 0 0 1
    outer loop
      vertex -11.9292 -2.61313 8
      vertex -25 -2.5 8
      vertex -11.6645 -2.92134 8
    endloop
  endfacet
  facet normal 0 0 1
    outer loop
      vertex -11.982 -2.5 8
      vertex -25 -2.5 8
      vertex -11.9292 -2.61313 8
    endloop
  endfacet
  facet normal 0 0 1
    outer loop
      vertex -9.58871 4.70547 8
      vertex -8.23959 5.23189 8
      vertex -25 2.5 8
    endloop
  endfacet
  facet normal 0 0 1
    outer loop
      vertex -5.97558 5.63915 8
      vertex -4.16023 5.47421 8
      vertex 2.80083 7 8
    endloop
  endfacet
  facet normal 0 0 1
    outer loop
      vertex -3.92534 5.45287 8
      vertex -2.09684 4.80241 8
      vertex 2.80083 7 8
    endloop
  endfacet
  facet normal 0.819152 0 -0.573576
    outer loop
      vertex -2.80083 7 0
      vertex 2.80083 7 8
      vertex 2.80083 -7 8
    endloop
  endfacet
  facet normal 0.819152 0 -0.573576
    outer loop
      vertex -0.67883 1.40825 3.03053
      vertex -2.80083 7 0
      vertex 2.80083 -7 8
    endloop
  endfacet
  facet normal 0.819152 0 -0.573576
    outer loop
      vertex -2.80083 -7 0
      vertex -2.80083 7 0
      vertex -1.80946 -0.57735 1.41582
    endloop
  endfacet
  facet normal 0.819152 0 -0.573576
    outer loop
      vertex -2.80083 -7 0
      vertex -1.61548 -1.40825 1.69286
      vertex 2.80083 -7 8
    endloop
  endfacet
  facet normal 0.819152 0 -0.573576
    outer loop
      vertex -2.80083 -7 0
      vertex -1.80946 -0.57735 1.41582
      vertex -1.61548 -1.40825 1.69286
    endloop
  endfacet
  facet normal 0.819152 0 -0.573576
    outer loop
      vertex -1.14715 -1.41421 2.3617
      vertex -0.67883 -1.40825 3.03053
      vertex 2.80083 -7 8
    endloop
  endfacet
  facet normal 0.819152 0 -0.573576
    outer loop
      vertex -0.67883 -1.40825 3.03053
      vertex -0.484844 -0.57735 3.30757
      vertex 2.80083 -7 8
    endloop
  endfacet
  facet normal 0.819152 0 -0.573576
    outer loop
      vertex -0.484844 -0.57735 3.30757
      vertex -0.580642 0 3.17076
      vertex 2.80083 -7 8
    endloop
  endfacet
  facet normal 0.819152 0 -0.573576
    outer loop
      vertex -1.14715 1.41421 2.3617
      vertex -1.61548 1.40825 1.69286
      vertex -2.80083 7 0
    endloop
  endfacet
  facet normal 0.819152 0 -0.573576
    outer loop
      vertex -0.580642 0 3.17076
      vertex -0.484844 0.57735 3.30757
      vertex 2.80083 -7 8
    endloop
  endfacet
  facet normal 0.819152 0 -0.573576
    outer loop
      vertex -0.484844 0.57735 3.30757
      vertex -0.67883 1.40825 3.03053
      vertex 2.80083 -7 8
    endloop
  endfacet
  facet normal 0.819152 0 -0.573576
    outer loop
      vertex -1.61548 1.40825 1.69286
      vertex -1.80946 0.57735 1.41582
      vertex -2.80083 7 0
    endloop
  endfacet
  facet normal 0.819152 0 -0.573576
    outer loop
      vertex -1.80946 -0.57735 1.41582
      vertex -2.80083 7 0
      vertex -1.80946 0.57735 1.41582
    endloop
  endfacet
  facet normal 0.819152 0 -0.573576
    outer loop
      vertex -1.80946 -0.57735 1.41582
      vertex -1.80946 0.57735 1.41582
      vertex -1.71366 0 1.55263
    endloop
  endfacet
  facet normal 0.819152 0 -0.573576
    outer loop
      vertex -1.61548 -1.40825 1.69286
      vertex -1.14715 -1.41421 2.3617
      vertex 2.80083 -7 8
    endloop
  endfacet
  facet normal 0.819152 0 -0.573576
    outer loop
      vertex -0.67883 1.40825 3.03053
      vertex -1.14715 1.41421 2.3617
      vertex -2.80083 7 0
    endloop
  endfacet
  facet normal 0.984808 -1.57009e-016 0.173648
    outer loop
      vertex -22.2604 -7 3.86468
      vertex -22.2604 -2.5 3.86468
      vertex -22.3149 -2.5 4.17367
    endloop
  endfacet
  facet normal 0.984808 -1.57009e-016 0.173648
    outer loop
      vertex -22.3149 -7 4.17367
      vertex -22.2604 -7 3.86468
      vertex -22.3149 -2.5 4.17367
    endloop
  endfacet
  facet normal 1 -1.2736e-016 1.53889e-007
    outer loop
      vertex -22.3149 -7 4.17367
      vertex -22.3149 -2.5 4.17367
      vertex -22.3149 -2.5 4.48743
    endloop
  endfacet
  facet normal 1 -1.2736e-016 1.53889e-007
    outer loop
      vertex -22.3149 -7 4.48743
      vertex -22.3149 -7 4.17367
      vertex -22.3149 -2.5 4.48743
    endloop
  endfacet
  facet normal 0.939693 -1.81888e-016 0.34202
    outer loop
      vertex -22.1531 -7 3.56984
      vertex -22.1531 -2.5 3.56984
      vertex -22.2604 -2.5 3.86468
    endloop
  endfacet
  facet normal 0.939693 -1.81888e-016 0.34202
    outer loop
      vertex -22.2604 -7 3.86468
      vertex -22.1531 -7 3.56984
      vertex -22.2604 -2.5 3.86468
    endloop
  endfacet
  facet normal 0.866025 -2.01241e-016 0.5
    outer loop
      vertex -21.9962 -7 3.29811
      vertex -21.9962 -2.5 3.29811
      vertex -22.1531 -2.5 3.56984
    endloop
  endfacet
  facet normal 0.866025 -2.01241e-016 0.5
    outer loop
      vertex -22.1531 -7 3.56984
      vertex -21.9962 -7 3.29811
      vertex -22.1531 -2.5 3.56984
    endloop
  endfacet
  facet normal 0.766044 -2.14479e-016 0.642788
    outer loop
      vertex -21.7945 -7 3.05776
      vertex -21.7945 -2.5 3.05776
      vertex -21.9962 -2.5 3.29811
    endloop
  endfacet
  facet normal 0.766044 -2.14479e-016 0.642788
    outer loop
      vertex -21.9962 -7 3.29811
      vertex -21.7945 -7 3.05776
      vertex -21.9962 -2.5 3.29811
    endloop
  endfacet
  facet normal 0.642787 -2.212e-016 0.766045
    outer loop
      vertex -21.5542 -7 2.85608
      vertex -21.5542 -2.5 2.85608
      vertex -21.7945 -2.5 3.05776
    endloop
  endfacet
  facet normal 0.642787 -2.212e-016 0.766045
    outer loop
      vertex -21.7945 -7 3.05776
      vertex -21.5542 -7 2.85608
      vertex -21.7945 -2.5 3.05776
    endloop
  endfacet
  facet normal 0.5 -2.212e-016 0.866025
    outer loop
      vertex -21.2824 -7 2.6992
      vertex -21.2824 -2.5 2.6992
      vertex -21.5542 -2.5 2.85608
    endloop
  endfacet
  facet normal 0.5 -2.212e-016 0.866025
    outer loop
      vertex -21.5542 -7 2.85608
      vertex -21.2824 -7 2.6992
      vertex -21.5542 -2.5 2.85608
    endloop
  endfacet
  facet normal 0.34202 -2.14479e-016 0.939693
    outer loop
      vertex -20.9876 -7 2.59188
      vertex -20.9876 -2.5 2.59188
      vertex -21.2824 -2.5 2.6992
    endloop
  endfacet
  facet normal 0.34202 -2.14479e-016 0.939693
    outer loop
      vertex -21.2824 -7 2.6992
      vertex -20.9876 -7 2.59188
      vertex -21.2824 -2.5 2.6992
    endloop
  endfacet
  facet normal 0.173648 -2.01241e-016 0.984808
    outer loop
      vertex -20.6786 -7 2.5374
      vertex -20.6786 -2.5 2.5374
      vertex -20.9876 -2.5 2.59188
    endloop
  endfacet
  facet normal 0.173648 -2.01241e-016 0.984808
    outer loop
      vertex -20.9876 -7 2.59188
      vertex -20.6786 -7 2.5374
      vertex -20.9876 -2.5 2.59188
    endloop
  endfacet
  facet normal -1.53889e-007 -1.81888e-016 1
    outer loop
      vertex -20.3648 -7 2.5374
      vertex -20.3648 -2.5 2.5374
      vertex -20.6786 -2.5 2.5374
    endloop
  endfacet
  facet normal -1.53889e-007 -1.81888e-016 1
    outer loop
      vertex -20.6786 -7 2.5374
      vertex -20.3648 -7 2.5374
      vertex -20.6786 -2.5 2.5374
    endloop
  endfacet
  facet normal -0.173648 -1.57009e-016 0.984808
    outer loop
      vertex -20.0558 -7 2.59188
      vertex -20.0558 -2.5 2.59188
      vertex -20.3648 -2.5 2.5374
    endloop
  endfacet
  facet normal -0.173648 -1.57009e-016 0.984808
    outer loop
      vertex -20.3648 -7 2.5374
      vertex -20.0558 -7 2.59188
      vertex -20.3648 -2.5 2.5374
    endloop
  endfacet
  facet normal -0.34202 -1.2736e-016 0.939693
    outer loop
      vertex -19.761 -7 2.6992
      vertex -19.761 -2.5 2.6992
      vertex -20.0558 -2.5 2.59188
    endloop
  endfacet
  facet normal -0.34202 -1.2736e-016 0.939693
    outer loop
      vertex -20.0558 -7 2.59188
      vertex -19.761 -7 2.6992
      vertex -20.0558 -2.5 2.59188
    endloop
  endfacet
  facet normal -0.5 -9.384e-017 0.866025
    outer loop
      vertex -19.4893 -7 2.85608
      vertex -19.4893 -2.5 2.85608
      vertex -19.761 -2.5 2.6992
    endloop
  endfacet
  facet normal -0.5 -9.384e-017 0.866025
    outer loop
      vertex -19.761 -7 2.6992
      vertex -19.4893 -7 2.85608
      vertex -19.761 -2.5 2.6992
    endloop
  endfacet
  facet normal -0.642788 -5.74693e-017 0.766044
    outer loop
      vertex -19.2489 -7 3.05776
      vertex -19.2489 -2.5 3.05776
      vertex -19.4893 -2.5 2.85608
    endloop
  endfacet
  facet normal -0.642788 -5.74693e-017 0.766044
    outer loop
      vertex -19.4893 -7 2.85608
      vertex -19.2489 -7 3.05776
      vertex -19.4893 -2.5 2.85608
    endloop
  endfacet
  facet normal -0.766045 -1.93524e-017 0.642787
    outer loop
      vertex -19.0472 -2.5 3.29811
      vertex -19.2489 -2.5 3.05776
      vertex -19.0472 -7 3.29811
    endloop
  endfacet
  facet normal -0.766045 -1.93524e-017 0.642787
    outer loop
      vertex -19.0472 -7 3.29811
      vertex -19.2489 -2.5 3.05776
      vertex -19.2489 -7 3.05776
    endloop
  endfacet
  facet normal -0.866025 1.93524e-017 0.5
    outer loop
      vertex -18.8904 -2.5 3.56984
      vertex -19.0472 -2.5 3.29811
      vertex -18.8904 -7 3.56984
    endloop
  endfacet
  facet normal -0.866025 1.93524e-017 0.5
    outer loop
      vertex -18.8904 -7 3.56984
      vertex -19.0472 -2.5 3.29811
      vertex -19.0472 -7 3.29811
    endloop
  endfacet
  facet normal -0.939693 5.74693e-017 0.34202
    outer loop
      vertex -18.783 -2.5 3.86468
      vertex -18.8904 -2.5 3.56984
      vertex -18.783 -7 3.86468
    endloop
  endfacet
  facet normal -0.939693 5.74693e-017 0.34202
    outer loop
      vertex -18.783 -7 3.86468
      vertex -18.8904 -2.5 3.56984
      vertex -18.8904 -7 3.56984
    endloop
  endfacet
  facet normal -0.984808 9.384e-017 0.173648
    outer loop
      vertex -18.7286 -2.5 4.17367
      vertex -18.783 -2.5 3.86468
      vertex -18.7286 -7 4.17367
    endloop
  endfacet
  facet normal -0.984808 9.384e-017 0.173648
    outer loop
      vertex -18.7286 -7 4.17367
      vertex -18.783 -2.5 3.86468
      vertex -18.783 -7 3.86468
    endloop
  endfacet
  facet normal -1 1.2736e-016 -1.53889e-007
    outer loop
      vertex -18.7286 -2.5 4.17367
      vertex -18.7286 -7 4.17367
      vertex -18.7286 -2.5 4.48743
    endloop
  endfacet
  facet normal -1 1.2736e-016 -1.53889e-007
    outer loop
      vertex -18.7286 -2.5 4.48743
      vertex -18.7286 -7 4.17367
      vertex -18.7286 -7 4.48743
    endloop
  endfacet
  facet normal -0.984808 1.57009e-016 -0.173648
    outer loop
      vertex -18.7286 -2.5 4.48743
      vertex -18.7286 -7 4.48743
      vertex -18.783 -2.5 4.79643
    endloop
  endfacet
  facet normal -0.984808 1.57009e-016 -0.173648
    outer loop
      vertex -18.783 -2.5 4.79643
      vertex -18.7286 -7 4.48743
      vertex -18.783 -7 4.79643
    endloop
  endfacet
  facet normal -0.939693 1.81888e-016 -0.34202
    outer loop
      vertex -18.783 -2.5 4.79643
      vertex -18.783 -7 4.79643
      vertex -18.8904 -2.5 5.09126
    endloop
  endfacet
  facet normal -0.939693 1.81888e-016 -0.34202
    outer loop
      vertex -18.8904 -2.5 5.09126
      vertex -18.783 -7 4.79643
      vertex -18.8904 -7 5.09126
    endloop
  endfacet
  facet normal -0.866025 2.01241e-016 -0.5
    outer loop
      vertex -18.8904 -2.5 5.09126
      vertex -18.8904 -7 5.09126
      vertex -19.0472 -2.5 5.36299
    endloop
  endfacet
  facet normal -0.866025 2.01241e-016 -0.5
    outer loop
      vertex -19.0472 -2.5 5.36299
      vertex -18.8904 -7 5.09126
      vertex -19.0472 -7 5.36299
    endloop
  endfacet
  facet normal -0.766044 2.14479e-016 -0.642788
    outer loop
      vertex -19.0472 -2.5 5.36299
      vertex -19.0472 -7 5.36299
      vertex -19.2489 -2.5 5.60334
    endloop
  endfacet
  facet normal -0.766044 2.14479e-016 -0.642788
    outer loop
      vertex -19.2489 -2.5 5.60334
      vertex -19.0472 -7 5.36299
      vertex -19.2489 -7 5.60334
    endloop
  endfacet
  facet normal -0.642787 2.212e-016 -0.766045
    outer loop
      vertex -19.2489 -2.5 5.60334
      vertex -19.2489 -7 5.60334
      vertex -19.4893 -2.5 5.80502
    endloop
  endfacet
  facet normal -0.642787 2.212e-016 -0.766045
    outer loop
      vertex -19.4893 -2.5 5.80502
      vertex -19.2489 -7 5.60334
      vertex -19.4893 -7 5.80502
    endloop
  endfacet
  facet normal -0.5 2.212e-016 -0.866025
    outer loop
      vertex -19.4893 -2.5 5.80502
      vertex -19.4893 -7 5.80502
      vertex -19.761 -2.5 5.96191
    endloop
  endfacet
  facet normal -0.5 2.212e-016 -0.866025
    outer loop
      vertex -19.761 -2.5 5.96191
      vertex -19.4893 -7 5.80502
      vertex -19.761 -7 5.96191
    endloop
  endfacet
  facet normal -0.34202 2.14479e-016 -0.939693
    outer loop
      vertex -19.761 -2.5 5.96191
      vertex -19.761 -7 5.96191
      vertex -20.0558 -2.5 6.06922
    endloop
  endfacet
  facet normal -0.34202 2.14479e-016 -0.939693
    outer loop
      vertex -20.0558 -2.5 6.06922
      vertex -19.761 -7 5.96191
      vertex -20.0558 -7 6.06922
    endloop
  endfacet
  facet normal -0.173648 2.01241e-016 -0.984808
    outer loop
      vertex -20.0558 -2.5 6.06922
      vertex -20.0558 -7 6.06922
      vertex -20.3648 -2.5 6.1237
    endloop
  endfacet
  facet normal -0.173648 2.01241e-016 -0.984808
    outer loop
      vertex -20.3648 -2.5 6.1237
      vertex -20.0558 -7 6.06922
      vertex -20.3648 -7 6.1237
    endloop
  endfacet
  facet normal 1.53889e-007 1.81888e-016 -1
    outer loop
      vertex -20.3648 -2.5 6.1237
      vertex -20.3648 -7 6.1237
      vertex -20.6786 -2.5 6.1237
    endloop
  endfacet
  facet normal 1.53889e-007 1.81888e-016 -1
    outer loop
      vertex -20.6786 -2.5 6.1237
      vertex -20.3648 -7 6.1237
      vertex -20.6786 -7 6.1237
    endloop
  endfacet
  facet normal 0.173648 1.57009e-016 -0.984808
    outer loop
      vertex -20.6786 -2.5 6.1237
      vertex -20.6786 -7 6.1237
      vertex -20.9876 -2.5 6.06922
    endloop
  endfacet
  facet normal 0.173648 1.57009e-016 -0.984808
    outer loop
      vertex -20.9876 -2.5 6.06922
      vertex -20.6786 -7 6.1237
      vertex -20.9876 -7 6.06922
    endloop
  endfacet
  facet normal 0.34202 1.2736e-016 -0.939693
    outer loop
      vertex -20.9876 -2.5 6.06922
      vertex -20.9876 -7 6.06922
      vertex -21.2824 -2.5 5.96191
    endloop
  endfacet
  facet normal 0.34202 1.2736e-016 -0.939693
    outer loop
      vertex -21.2824 -2.5 5.96191
      vertex -20.9876 -7 6.06922
      vertex -21.2824 -7 5.96191
    endloop
  endfacet
  facet normal 0.5 9.384e-017 -0.866025
    outer loop
      vertex -21.2824 -2.5 5.96191
      vertex -21.2824 -7 5.96191
      vertex -21.5542 -2.5 5.80502
    endloop
  endfacet
  facet normal 0.5 9.384e-017 -0.866025
    outer loop
      vertex -21.5542 -2.5 5.80502
      vertex -21.2824 -7 5.96191
      vertex -21.5542 -7 5.80502
    endloop
  endfacet
  facet normal 0.642788 5.74693e-017 -0.766044
    outer loop
      vertex -21.5542 -2.5 5.80502
      vertex -21.5542 -7 5.80502
      vertex -21.7945 -2.5 5.60334
    endloop
  endfacet
  facet normal 0.642788 5.74693e-017 -0.766044
    outer loop
      vertex -21.7945 -2.5 5.60334
      vertex -21.5542 -7 5.80502
      vertex -21.7945 -7 5.60334
    endloop
  endfacet
  facet normal 0.766045 1.93524e-017 -0.642787
    outer loop
      vertex -21.9962 -2.5 5.36299
      vertex -21.7945 -2.5 5.60334
      vertex -21.7945 -7 5.60334
    endloop
  endfacet
  facet normal 0.766045 1.93524e-017 -0.642787
    outer loop
      vertex -21.9962 -7 5.36299
      vertex -21.9962 -2.5 5.36299
      vertex -21.7945 -7 5.60334
    endloop
  endfacet
  facet normal 0.866025 -1.93524e-017 -0.5
    outer loop
      vertex -22.1531 -2.5 5.09126
      vertex -21.9962 -2.5 5.36299
      vertex -21.9962 -7 5.36299
    endloop
  endfacet
  facet normal 0.866025 -1.93524e-017 -0.5
    outer loop
      vertex -22.1531 -7 5.09126
      vertex -22.1531 -2.5 5.09126
      vertex -21.9962 -7 5.36299
    endloop
  endfacet
  facet normal 0.939693 -5.74693e-017 -0.34202
    outer loop
      vertex -22.2604 -2.5 4.79643
      vertex -22.1531 -2.5 5.09126
      vertex -22.1531 -7 5.09126
    endloop
  endfacet
  facet normal 0.939693 -5.74693e-017 -0.34202
    outer loop
      vertex -22.2604 -7 4.79643
      vertex -22.2604 -2.5 4.79643
      vertex -22.1531 -7 5.09126
    endloop
  endfacet
  facet normal 0.984808 -9.384e-017 -0.173648
    outer loop
      vertex -22.3149 -2.5 4.48743
      vertex -22.2604 -2.5 4.79643
      vertex -22.2604 -7 4.79643
    endloop
  endfacet
  facet normal 0.984808 -9.384e-017 -0.173648
    outer loop
      vertex -22.3149 -7 4.48743
      vertex -22.3149 -2.5 4.48743
      vertex -22.2604 -7 4.79643
    endloop
  endfacet
  facet normal 0.35009 -0.270598 0.89678
    outer loop
      vertex -8.20767 -7 1.97559
      vertex -1.80946 -0.57735 1.41582
      vertex -1.71366 0 1.55263
    endloop
  endfacet
  facet normal 0.35009 -0.270598 0.89678
    outer loop
      vertex -9.17834 -7 2.35453
      vertex -8.20767 -7 1.97559
      vertex -2.20498 0 1.74444
    endloop
  endfacet
  facet normal 0.35009 -0.270598 0.89678
    outer loop
      vertex -2.20498 0 1.74444
      vertex -8.20767 -7 1.97559
      vertex -1.71366 0 1.55263
    endloop
  endfacet
  facet normal 0.684149 -0.653282 0.32429
    outer loop
      vertex -9.17834 -7 2.35453
      vertex -2.20498 0 1.74444
      vertex -2.55598 0 2.48495
    endloop
  endfacet
  facet normal 0.684149 -0.653282 0.32429
    outer loop
      vertex -9.52935 -7 3.09504
      vertex -9.17834 -7 2.35453
      vertex -2.55598 0 2.48495
    endloop
  endfacet
  facet normal -0.189047 0.270598 0.943948
    outer loop
      vertex -7.18595 -7 2.18021
      vertex -1.61548 -1.40825 1.69286
      vertex -1.80946 -0.57735 1.41582
    endloop
  endfacet
  facet normal -0.189047 0.270598 0.943948
    outer loop
      vertex -8.20767 -7 1.97559
      vertex -7.18595 -7 2.18021
      vertex -1.80946 -0.57735 1.41582
    endloop
  endfacet
  facet normal -0.617443 0.653282 0.438164
    outer loop
      vertex -1.14715 -1.41421 2.3617
      vertex -1.61548 -1.40825 1.69286
      vertex -6.71168 -7 2.84853
    endloop
  endfacet
  facet normal -0.617443 0.653282 0.438164
    outer loop
      vertex -6.71168 -7 2.84853
      vertex -1.61548 -1.40825 1.69286
      vertex -7.18595 -7 2.18021
    endloop
  endfacet
  facet normal -0.684149 0.653282 -0.32429
    outer loop
      vertex -1.14715 -1.41421 2.3617
      vertex -6.71168 -7 2.84853
      vertex -1.08552 -1 3.06611
    endloop
  endfacet
  facet normal -0.684149 0.653282 -0.32429
    outer loop
      vertex -1.08552 -1 3.06611
      vertex -6.71168 -7 2.84853
      vertex -7.06269 -7 3.58905
    endloop
  endfacet
  facet normal -0.35009 0.270598 -0.89678
    outer loop
      vertex -1.08552 -1 3.06611
      vertex -7.06269 -7 3.58905
      vertex -1.06 0 3.35789
    endloop
  endfacet
  facet normal -0.35009 0.270598 -0.89678
    outer loop
      vertex -1.06 0 3.35789
      vertex -7.06269 -7 3.58905
      vertex -8.03336 -7 3.96798
    endloop
  endfacet
  facet normal 0.189047 -0.270598 -0.943948
    outer loop
      vertex -1.06 0 3.35789
      vertex -8.03336 -7 3.96798
      vertex -2.08172 0 3.15327
    endloop
  endfacet
  facet normal 0.189047 -0.270598 -0.943948
    outer loop
      vertex -2.08172 0 3.15327
      vertex -8.03336 -7 3.96798
      vertex -9.05508 -7 3.76336
    endloop
  endfacet
  facet normal 0.617443 -0.653282 -0.438164
    outer loop
      vertex -2.55598 0 2.48495
      vertex -2.08172 0 3.15327
      vertex -9.05508 -7 3.76336
    endloop
  endfacet
  facet normal 0.617443 -0.653282 -0.438164
    outer loop
      vertex -9.52935 -7 3.09504
      vertex -2.55598 0 2.48495
      vertex -9.05508 -7 3.76336
    endloop
  endfacet
  facet normal 0 1 0
    outer loop
      vertex -19.761 7 5.96191
      vertex -25 7 8
      vertex -2.80083 7 0
    endloop
  endfacet
  facet normal 0 1 0
    outer loop
      vertex -8.03336 7 3.96798
      vertex -25 7 8
      vertex 2.80083 7 8
    endloop
  endfacet
  facet normal 0 1 0
    outer loop
      vertex -25 7 0
      vertex -25 7 8
      vertex -22.3149 7 4.48743
    endloop
  endfacet
  facet normal 0 1 0
    outer loop
      vertex -25 7 0
      vertex -22.3149 7 4.48743
      vertex -22.3149 7 4.17367
    endloop
  endfacet
  facet normal 0 1 0
    outer loop
      vertex -25 7 0
      vertex -22.3149 7 4.17367
      vertex -22.2604 7 3.86468
    endloop
  endfacet
  facet normal 0 1 0
    outer loop
      vertex -25 7 0
      vertex -22.2604 7 3.86468
      vertex -22.1531 7 3.56984
    endloop
  endfacet
  facet normal 0 1 0
    outer loop
      vertex -25 7 0
      vertex -22.1531 7 3.56984
      vertex -21.9962 7 3.29811
    endloop
  endfacet
  facet normal 0 1 0
    outer loop
      vertex -25 7 0
      vertex -21.9962 7 3.29811
      vertex -21.7945 7 3.05776
    endloop
  endfacet
  facet normal 0 1 0
    outer loop
      vertex -25 7 0
      vertex -21.7945 7 3.05776
      vertex -21.5542 7 2.85608
    endloop
  endfacet
  facet normal 0 1 0
    outer loop
      vertex -25 7 0
      vertex -21.5542 7 2.85608
      vertex -21.2824 7 2.6992
    endloop
  endfacet
  facet normal 0 1 0
    outer loop
      vertex -25 7 0
      vertex -21.2824 7 2.6992
      vertex -20.9876 7 2.59188
    endloop
  endfacet
  facet normal 0 1 0
    outer loop
      vertex -25 7 0
      vertex -20.9876 7 2.59188
      vertex -20.6786 7 2.5374
    endloop
  endfacet
  facet normal 0 1 0
    outer loop
      vertex -25 7 0
      vertex -20.6786 7 2.5374
      vertex -2.80083 7 0
    endloop
  endfacet
  facet normal 0 1 0
    outer loop
      vertex -20.0558 7 2.59188
      vertex -2.80083 7 0
      vertex -20.3648 7 2.5374
    endloop
  endfacet
  facet normal 0 1 0
    outer loop
      vertex -19.761 7 2.6992
      vertex -2.80083 7 0
      vertex -20.0558 7 2.59188
    endloop
  endfacet
  facet normal 0 1 0
    outer loop
      vertex -19.4893 7 2.85608
      vertex -2.80083 7 0
      vertex -19.761 7 2.6992
    endloop
  endfacet
  facet normal 0 1 0
    outer loop
      vertex -19.2489 7 3.05776
      vertex -2.80083 7 0
      vertex -19.4893 7 2.85608
    endloop
  endfacet
  facet normal 0 1 0
    outer loop
      vertex -19.0472 7 3.29811
      vertex -2.80083 7 0
      vertex -19.2489 7 3.05776
    endloop
  endfacet
  facet normal 0 1 0
    outer loop
      vertex -18.8904 7 3.56984
      vertex -2.80083 7 0
      vertex -19.0472 7 3.29811
    endloop
  endfacet
  facet normal 0 1 0
    outer loop
      vertex -18.783 7 3.86468
      vertex -2.80083 7 0
      vertex -18.8904 7 3.56984
    endloop
  endfacet
  facet normal 0 1 0
    outer loop
      vertex -7.18595 7 2.18021
      vertex -2.80083 7 0
      vertex -8.20767 7 1.97559
    endloop
  endfacet
  facet normal 0 1 0
    outer loop
      vertex -20.3648 7 6.1237
      vertex -25 7 8
      vertex -20.0558 7 6.06922
    endloop
  endfacet
  facet normal 0 1 0
    outer loop
      vertex -21.7945 7 5.60334
      vertex -25 7 8
      vertex -21.5542 7 5.80502
    endloop
  endfacet
  facet normal 0 1 0
    outer loop
      vertex -18.783 7 3.86468
      vertex -18.7286 7 4.17367
      vertex -2.80083 7 0
    endloop
  endfacet
  facet normal 0 1 0
    outer loop
      vertex -18.7286 7 4.17367
      vertex -18.7286 7 4.48743
      vertex -2.80083 7 0
    endloop
  endfacet
  facet normal 0 1 0
    outer loop
      vertex -21.5542 7 5.80502
      vertex -25 7 8
      vertex -21.2824 7 5.96191
    endloop
  endfacet
  facet normal 0 1 0
    outer loop
      vertex -18.7286 7 4.48743
      vertex -18.783 7 4.79643
      vertex -2.80083 7 0
    endloop
  endfacet
  facet normal 0 1 0
    outer loop
      vertex -21.2824 7 5.96191
      vertex -25 7 8
      vertex -20.9876 7 6.06922
    endloop
  endfacet
  facet normal 0 1 0
    outer loop
      vertex -18.783 7 4.79643
      vertex -18.8904 7 5.09126
      vertex -2.80083 7 0
    endloop
  endfacet
  facet normal 0 1 0
    outer loop
      vertex -18.8904 7 5.09126
      vertex -19.0472 7 5.36299
      vertex -2.80083 7 0
    endloop
  endfacet
  facet normal 0 1 0
    outer loop
      vertex -20.9876 7 6.06922
      vertex -25 7 8
      vertex -20.6786 7 6.1237
    endloop
  endfacet
  facet normal 0 1 0
    outer loop
      vertex -19.0472 7 5.36299
      vertex -19.2489 7 5.60334
      vertex -2.80083 7 0
    endloop
  endfacet
  facet normal 0 1 0
    outer loop
      vertex -20.6786 7 6.1237
      vertex -25 7 8
      vertex -20.3648 7 6.1237
    endloop
  endfacet
  facet normal 0 1 0
    outer loop
      vertex -19.2489 7 5.60334
      vertex -19.4893 7 5.80502
      vertex -2.80083 7 0
    endloop
  endfacet
  facet normal 0 1 0
    outer loop
      vertex -20.0558 7 6.06922
      vertex -25 7 8
      vertex -19.761 7 5.96191
    endloop
  endfacet
  facet normal 0 1 0
    outer loop
      vertex -19.4893 7 5.80502
      vertex -19.761 7 5.96191
      vertex -2.80083 7 0
    endloop
  endfacet
  facet normal 0 1 0
    outer loop
      vertex -21.9962 7 5.36299
      vertex -25 7 8
      vertex -21.7945 7 5.60334
    endloop
  endfacet
  facet normal 0 1 0
    outer loop
      vertex -22.1531 7 5.09126
      vertex -25 7 8
      vertex -21.9962 7 5.36299
    endloop
  endfacet
  facet normal 0 1 0
    outer loop
      vertex -22.2604 7 4.79643
      vertex -25 7 8
      vertex -22.1531 7 5.09126
    endloop
  endfacet
  facet normal 0 1 0
    outer loop
      vertex -22.3149 7 4.48743
      vertex -25 7 8
      vertex -22.2604 7 4.79643
    endloop
  endfacet
  facet normal 0 1 0
    outer loop
      vertex -9.17834 7 2.35453
      vertex -25 7 8
      vertex -9.52935 7 3.09504
    endloop
  endfacet
  facet normal 0 1 0
    outer loop
      vertex -8.20767 7 1.97559
      vertex -25 7 8
      vertex -9.17834 7 2.35453
    endloop
  endfacet
  facet normal 0 1 0
    outer loop
      vertex -2.80083 7 0
      vertex -25 7 8
      vertex -8.20767 7 1.97559
    endloop
  endfacet
  facet normal 0 1 0
    outer loop
      vertex -8.03336 7 3.96798
      vertex 2.80083 7 8
      vertex -7.06269 7 3.58905
    endloop
  endfacet
  facet normal 0 1 0
    outer loop
      vertex -2.80083 7 0
      vertex -7.18595 7 2.18021
      vertex 2.80083 7 8
    endloop
  endfacet
  facet normal 0 1 0
    outer loop
      vertex -7.18595 7 2.18021
      vertex -6.71168 7 2.84853
      vertex 2.80083 7 8
    endloop
  endfacet
  facet normal 0 1 0
    outer loop
      vertex -6.71168 7 2.84853
      vertex -7.06269 7 3.58905
      vertex 2.80083 7 8
    endloop
  endfacet
  facet normal 0 1 0
    outer loop
      vertex -9.05508 7 3.76336
      vertex -25 7 8
      vertex -8.03336 7 3.96798
    endloop
  endfacet
  facet normal 0 1 0
    outer loop
      vertex -9.52935 7 3.09504
      vertex -25 7 8
      vertex -9.05508 7 3.76336
    endloop
  endfacet
  facet normal 0 1 0
    outer loop
      vertex -20.3648 7 2.5374
      vertex -2.80083 7 0
      vertex -20.6786 7 2.5374
    endloop
  endfacet
  facet normal -1 0 0
    outer loop
      vertex -25 2.5 8
      vertex -25 7 8
      vertex -25 2.5 0
    endloop
  endfacet
  facet normal -1 0 0
    outer loop
      vertex -25 2.5 0
      vertex -25 7 8
      vertex -25 7 0
    endloop
  endfacet
  facet normal -1.2736e-016 -1 -1.81888e-016
    outer loop
      vertex -18.8904 2.5 3.56984
      vertex -19.0472 2.5 3.29811
      vertex -12.2595 2.5 7.22139
    endloop
  endfacet
  facet normal -1.2736e-016 -1 -1.81888e-016
    outer loop
      vertex -25 2.5 0
      vertex -14.1848 2.5 0
      vertex -13.9482 2.5 1.32113
    endloop
  endfacet
  facet normal -1.2736e-016 -1 -1.81888e-016
    outer loop
      vertex -13.832 2.5 1.97023
      vertex -25 2.5 0
      vertex -13.9482 2.5 1.32113
    endloop
  endfacet
  facet normal -1.2736e-016 -1 -1.81888e-016
    outer loop
      vertex -13.832 2.5 1.97023
      vertex -13.1631 2.5 4.20367
      vertex -25 2.5 0
    endloop
  endfacet
  facet normal -1.2736e-016 -1 -1.81888e-016
    outer loop
      vertex -22.3149 2.5 4.48743
      vertex -25 2.5 8
      vertex -25 2.5 0
    endloop
  endfacet
  facet normal -1.2736e-016 -1 -1.81888e-016
    outer loop
      vertex -22.3149 2.5 4.17367
      vertex -22.3149 2.5 4.48743
      vertex -25 2.5 0
    endloop
  endfacet
  facet normal -1.2736e-016 -1 -1.81888e-016
    outer loop
      vertex -22.2604 2.5 4.79643
      vertex -25 2.5 8
      vertex -22.3149 2.5 4.48743
    endloop
  endfacet
  facet normal -1.2736e-016 -1 -1.81888e-016
    outer loop
      vertex -22.1531 2.5 5.09126
      vertex -25 2.5 8
      vertex -22.2604 2.5 4.79643
    endloop
  endfacet
  facet normal -1.2736e-016 -1 -1.81888e-016
    outer loop
      vertex -21.9962 2.5 5.36299
      vertex -25 2.5 8
      vertex -22.1531 2.5 5.09126
    endloop
  endfacet
  facet normal -1.2736e-016 -1 -1.81888e-016
    outer loop
      vertex -19.4893 2.5 5.80502
      vertex -19.2489 2.5 5.60334
      vertex -11.982 2.5 8
    endloop
  endfacet
  facet normal -1.2736e-016 -1 -1.81888e-016
    outer loop
      vertex -21.7945 2.5 5.60334
      vertex -25 2.5 8
      vertex -21.9962 2.5 5.36299
    endloop
  endfacet
  facet normal -1.2736e-016 -1 -1.81888e-016
    outer loop
      vertex -21.5542 2.5 5.80502
      vertex -25 2.5 8
      vertex -21.7945 2.5 5.60334
    endloop
  endfacet
  facet normal -1.2736e-016 -1 -1.81888e-016
    outer loop
      vertex -21.2824 2.5 5.96191
      vertex -25 2.5 8
      vertex -21.5542 2.5 5.80502
    endloop
  endfacet
  facet normal -1.2736e-016 -1 -1.81888e-016
    outer loop
      vertex -20.9876 2.5 6.06922
      vertex -25 2.5 8
      vertex -21.2824 2.5 5.96191
    endloop
  endfacet
  facet normal -1.2736e-016 -1 -1.81888e-016
    outer loop
      vertex -11.982 2.5 8
      vertex -25 2.5 8
      vertex -20.9876 2.5 6.06922
    endloop
  endfacet
  facet normal -1.2736e-016 -1 -1.81888e-016
    outer loop
      vertex -20.3648 2.5 6.1237
      vertex -20.0558 2.5 6.06922
      vertex -11.982 2.5 8
    endloop
  endfacet
  facet normal -1.2736e-016 -1 -1.81888e-016
    outer loop
      vertex -11.982 2.5 8
      vertex -20.9876 2.5 6.06922
      vertex -20.6786 2.5 6.1237
    endloop
  endfacet
  facet normal -1.2736e-016 -1 -1.81888e-016
    outer loop
      vertex -20.0558 2.5 6.06922
      vertex -19.761 2.5 5.96191
      vertex -11.982 2.5 8
    endloop
  endfacet
  facet normal -1.2736e-016 -1 -1.81888e-016
    outer loop
      vertex -18.783 2.5 3.86468
      vertex -18.8904 2.5 3.56984
      vertex -11.982 2.5 8
    endloop
  endfacet
  facet normal -1.2736e-016 -1 -1.81888e-016
    outer loop
      vertex -19.2489 2.5 5.60334
      vertex -19.0472 2.5 5.36299
      vertex -11.982 2.5 8
    endloop
  endfacet
  facet normal -1.2736e-016 -1 -1.81888e-016
    outer loop
      vertex -11.982 2.5 8
      vertex -19.0472 2.5 5.36299
      vertex -18.8904 2.5 5.09126
    endloop
  endfacet
  facet normal -1.2736e-016 -1 -1.81888e-016
    outer loop
      vertex -11.982 2.5 8
      vertex -18.8904 2.5 5.09126
      vertex -18.783 2.5 4.79643
    endloop
  endfacet
  facet normal -1.2736e-016 -1 -1.81888e-016
    outer loop
      vertex -21.2824 2.5 2.6992
      vertex -21.5542 2.5 2.85608
      vertex -25 2.5 0
    endloop
  endfacet
  facet normal -1.2736e-016 -1 -1.81888e-016
    outer loop
      vertex -11.982 2.5 8
      vertex -18.783 2.5 4.79643
      vertex -18.7286 2.5 4.48743
    endloop
  endfacet
  facet normal -1.2736e-016 -1 -1.81888e-016
    outer loop
      vertex -21.5542 2.5 2.85608
      vertex -21.7945 2.5 3.05776
      vertex -25 2.5 0
    endloop
  endfacet
  facet normal -1.2736e-016 -1 -1.81888e-016
    outer loop
      vertex -11.982 2.5 8
      vertex -18.7286 2.5 4.48743
      vertex -18.7286 2.5 4.17367
    endloop
  endfacet
  facet normal -1.2736e-016 -1 -1.81888e-016
    outer loop
      vertex -20.3648 2.5 2.5374
      vertex -20.6786 2.5 2.5374
      vertex -25 2.5 0
    endloop
  endfacet
  facet normal -1.2736e-016 -1 -1.81888e-016
    outer loop
      vertex -11.982 2.5 8
      vertex -18.7286 2.5 4.17367
      vertex -18.783 2.5 3.86468
    endloop
  endfacet
  facet normal -1.2736e-016 -1 -1.81888e-016
    outer loop
      vertex -19.761 2.5 2.6992
      vertex -20.0558 2.5 2.59188
      vertex -25 2.5 0
    endloop
  endfacet
  facet normal -1.2736e-016 -1 -1.81888e-016
    outer loop
      vertex -12.2595 2.5 7.22139
      vertex -11.982 2.5 8
      vertex -18.8904 2.5 3.56984
    endloop
  endfacet
  facet normal -1.2736e-016 -1 -1.81888e-016
    outer loop
      vertex -20.9876 2.5 2.59188
      vertex -21.2824 2.5 2.6992
      vertex -25 2.5 0
    endloop
  endfacet
  facet normal -1.2736e-016 -1 -1.81888e-016
    outer loop
      vertex -13.1631 2.5 4.20367
      vertex -12.2595 2.5 7.22139
      vertex -19.0472 2.5 3.29811
    endloop
  endfacet
  facet normal -1.2736e-016 -1 -1.81888e-016
    outer loop
      vertex -13.1631 2.5 4.20367
      vertex -19.0472 2.5 3.29811
      vertex -19.2489 2.5 3.05776
    endloop
  endfacet
  facet normal -1.2736e-016 -1 -1.81888e-016
    outer loop
      vertex -20.0558 2.5 2.59188
      vertex -20.3648 2.5 2.5374
      vertex -25 2.5 0
    endloop
  endfacet
  facet normal -1.2736e-016 -1 -1.81888e-016
    outer loop
      vertex -13.1631 2.5 4.20367
      vertex -19.2489 2.5 3.05776
      vertex -19.4893 2.5 2.85608
    endloop
  endfacet
  facet normal -1.2736e-016 -1 -1.81888e-016
    outer loop
      vertex -13.1631 2.5 4.20367
      vertex -19.761 2.5 2.6992
      vertex -25 2.5 0
    endloop
  endfacet
  facet normal -1.2736e-016 -1 -1.81888e-016
    outer loop
      vertex -13.1631 2.5 4.20367
      vertex -19.4893 2.5 2.85608
      vertex -19.761 2.5 2.6992
    endloop
  endfacet
  facet normal -1.2736e-016 -1 -1.81888e-016
    outer loop
      vertex -20.6786 2.5 2.5374
      vertex -20.9876 2.5 2.59188
      vertex -25 2.5 0
    endloop
  endfacet
  facet normal -1.2736e-016 -1 -1.81888e-016
    outer loop
      vertex -21.7945 2.5 3.05776
      vertex -21.9962 2.5 3.29811
      vertex -25 2.5 0
    endloop
  endfacet
  facet normal -1.2736e-016 -1 -1.81888e-016
    outer loop
      vertex -21.9962 2.5 3.29811
      vertex -22.1531 2.5 3.56984
      vertex -25 2.5 0
    endloop
  endfacet
  facet normal -1.2736e-016 -1 -1.81888e-016
    outer loop
      vertex -22.1531 2.5 3.56984
      vertex -22.2604 2.5 3.86468
      vertex -25 2.5 0
    endloop
  endfacet
  facet normal -1.2736e-016 -1 -1.81888e-016
    outer loop
      vertex -22.2604 2.5 3.86468
      vertex -22.3149 2.5 4.17367
      vertex -25 2.5 0
    endloop
  endfacet
  facet normal -1.2736e-016 -1 -1.81888e-016
    outer loop
      vertex -20.6786 2.5 6.1237
      vertex -20.3648 2.5 6.1237
      vertex -11.982 2.5 8
    endloop
  endfacet
  facet normal -1.2736e-016 -1 -1.81888e-016
    outer loop
      vertex -19.761 2.5 5.96191
      vertex -19.4893 2.5 5.80502
      vertex -11.982 2.5 8
    endloop
  endfacet
  facet normal 0.568912 -0.816066 -0.101866
    outer loop
      vertex -14.0235 2.61243 0
      vertex -9.58871 4.70547 8
      vertex -9.90902 4.48218 8
    endloop
  endfacet
  facet normal 0.568912 -0.816066 -0.101866
    outer loop
      vertex -14.1848 2.5 0
      vertex -14.0235 2.61243 0
      vertex -13.9482 2.5 1.32113
    endloop
  endfacet
  facet normal 0.568912 -0.816066 -0.101866
    outer loop
      vertex -13.9482 2.5 1.32113
      vertex -14.0235 2.61243 0
      vertex -9.90902 4.48218 8
    endloop
  endfacet
  facet normal 0.363177 -0.930765 0.0421909
    outer loop
      vertex -13.9297 2.64903 0
      vertex -8.23959 5.23189 8
      vertex -9.58871 4.70547 8
    endloop
  endfacet
  facet normal 0.363177 -0.930765 0.0421909
    outer loop
      vertex -14.0235 2.61243 0
      vertex -13.9297 2.64903 0
      vertex -9.58871 4.70547 8
    endloop
  endfacet
  facet normal 0.363177 -0.930764 0.0421907
    outer loop
      vertex -13.0895 2.97685 0
      vertex -7.90649 5.36186 8
      vertex -8.23959 5.23189 8
    endloop
  endfacet
  facet normal 0.363177 -0.930764 0.0421907
    outer loop
      vertex -13.9297 2.64903 0
      vertex -13.0895 2.97685 0
      vertex -8.23959 5.23189 8
    endloop
  endfacet
  facet normal 0.139305 -0.970059 0.198948
    outer loop
      vertex -12.0175 3.1308 0
      vertex -5.97558 5.63915 8
      vertex -7.90649 5.36186 8
    endloop
  endfacet
  facet normal 0.139305 -0.970059 0.198948
    outer loop
      vertex -13.0895 2.97685 0
      vertex -12.0175 3.1308 0
      vertex -7.90649 5.36186 8
    endloop
  endfacet
  facet normal -0.0845672 -0.930765 0.355704
    outer loop
      vertex -11.7371 3.10532 0
      vertex -4.16023 5.47421 8
      vertex -5.97558 5.63915 8
    endloop
  endfacet
  facet normal -0.0845672 -0.930765 0.355704
    outer loop
      vertex -12.0175 3.1308 0
      vertex -11.7371 3.10532 0
      vertex -5.97558 5.63915 8
    endloop
  endfacet
  facet normal -0.0845675 -0.930764 0.355705
    outer loop
      vertex -10.8792 3.02738 0
      vertex -3.92534 5.45287 8
      vertex -4.16023 5.47421 8
    endloop
  endfacet
  facet normal -0.0845675 -0.930764 0.355705
    outer loop
      vertex -11.7371 3.10532 0
      vertex -10.8792 3.02738 0
      vertex -4.16023 5.47421 8
    endloop
  endfacet
  facet normal -0.290302 -0.816065 0.499762
    outer loop
      vertex -10.5306 2.90336 0
      vertex -2.09684 4.80241 8
      vertex -3.92534 5.45287 8
    endloop
  endfacet
  facet normal -0.290302 -0.816065 0.499762
    outer loop
      vertex -10.8792 3.02738 0
      vertex -10.5306 2.90336 0
      vertex -3.92534 5.45287 8
    endloop
  endfacet
  facet normal -0.290302 -0.816066 0.499762
    outer loop
      vertex -9.77876 2.6359 0
      vertex -1.94317 4.74774 8
      vertex -2.09684 4.80241 8
    endloop
  endfacet
  facet normal -0.290302 -0.816066 0.499762
    outer loop
      vertex -10.5306 2.90336 0
      vertex -9.77876 2.6359 0
      vertex -2.09684 4.80241 8
    endloop
  endfacet
  facet normal -0.461233 -0.635254 0.619449
    outer loop
      vertex -9.42729 2.38071 0
      vertex -0.345018 3.58739 8
      vertex -1.94317 4.74774 8
    endloop
  endfacet
  facet normal -0.461233 -0.635254 0.619449
    outer loop
      vertex -9.77876 2.6359 0
      vertex -9.42729 2.38071 0
      vertex -1.94317 4.74774 8
    endloop
  endfacet
  facet normal -0.461233 -0.635253 0.619449
    outer loop
      vertex -8.84618 1.95879 0
      vertex -0.263427 3.52815 8
      vertex -0.345018 3.58739 8
    endloop
  endfacet
  facet normal -0.461233 -0.635253 0.619449
    outer loop
      vertex -9.42729 2.38071 0
      vertex -8.84618 1.95879 0
      vertex -0.345018 3.58739 8
    endloop
  endfacet
  facet normal -0.583512 -0.402977 0.70507
    outer loop
      vertex -8.58066 1.57432 0
      vertex 0.837049 1.93465 8
      vertex -0.263427 3.52815 8
    endloop
  endfacet
  facet normal -0.583512 -0.402977 0.70507
    outer loop
      vertex -8.84618 1.95879 0
      vertex -8.58066 1.57432 0
      vertex -0.263427 3.52815 8
    endloop
  endfacet
  facet normal -0.583512 -0.402977 0.70507
    outer loop
      vertex -8.21614 1.0465 0
      vertex 0.871387 1.88493 8
      vertex 0.837049 1.93465 8
    endloop
  endfacet
  facet normal -0.583512 -0.402977 0.70507
    outer loop
      vertex -8.58066 1.57432 0
      vertex -8.21614 1.0465 0
      vertex 0.837049 1.93465 8
    endloop
  endfacet
  facet normal -0.647233 -0.138054 0.749687
    outer loop
      vertex -8.11635 0.57865 0
      vertex 1.26391 0.0446761 8
      vertex 0.871387 1.88493 8
    endloop
  endfacet
  facet normal -0.647233 -0.138054 0.749687
    outer loop
      vertex -8.21614 1.0465 0
      vertex -8.11635 0.57865 0
      vertex 0.871387 1.88493 8
    endloop
  endfacet
  facet normal -0.647233 -0.138054 0.749687
    outer loop
      vertex -7.99293 0 0
      vertex 1.27344 0 8
      vertex 1.26391 0.0446761 8
    endloop
  endfacet
  facet normal -0.647233 -0.138054 0.749687
    outer loop
      vertex -8.11635 0.57865 0
      vertex -7.99293 0 0
      vertex 1.26391 0.0446761 8
    endloop
  endfacet
  facet normal -0.647233 0.138054 0.749687
    outer loop
      vertex 0.882902 -1.83095 8
      vertex 1.27344 0 8
      vertex -7.99293 0 0
    endloop
  endfacet
  facet normal -0.647233 0.138054 0.749687
    outer loop
      vertex -8.09391 -0.473417 0
      vertex 0.882902 -1.83095 8
      vertex -7.99293 0 0
    endloop
  endfacet
  facet normal -0.647233 0.138054 0.749687
    outer loop
      vertex 0.871387 -1.88493 8
      vertex 0.882902 -1.83095 8
      vertex -8.09391 -0.473417 0
    endloop
  endfacet
  facet normal -0.647233 0.138054 0.749687
    outer loop
      vertex -8.21614 -1.0465 0
      vertex 0.871387 -1.88493 8
      vertex -8.09391 -0.473417 0
    endloop
  endfacet
  facet normal -0.583512 0.402977 0.70507
    outer loop
      vertex -0.213699 -3.45614 8
      vertex 0.871387 -1.88493 8
      vertex -8.21614 -1.0465 0
    endloop
  endfacet
  facet normal -0.583512 0.402977 0.70507
    outer loop
      vertex -8.492 -1.44594 0
      vertex -0.213699 -3.45614 8
      vertex -8.21614 -1.0465 0
    endloop
  endfacet
  facet normal -0.583512 0.402977 0.70507
    outer loop
      vertex -0.263427 -3.52815 8
      vertex -0.213699 -3.45614 8
      vertex -8.492 -1.44594 0
    endloop
  endfacet
  facet normal -0.583512 0.402977 0.70507
    outer loop
      vertex -8.84618 -1.95879 0
      vertex -0.263427 -3.52815 8
      vertex -8.492 -1.44594 0
    endloop
  endfacet
  facet normal -0.461233 0.635254 0.619449
    outer loop
      vertex -0.263427 -3.52815 8
      vertex -8.84618 -1.95879 0
      vertex -1.82981 -4.66544 8
    endloop
  endfacet
  facet normal -0.461233 0.635254 0.619449
    outer loop
      vertex -1.82981 -4.66544 8
      vertex -8.84618 -1.95879 0
      vertex -9.22411 -2.23319 0
    endloop
  endfacet
  facet normal -0.461233 0.635253 0.619449
    outer loop
      vertex -1.82981 -4.66544 8
      vertex -9.22411 -2.23319 0
      vertex -1.94317 -4.74774 8
    endloop
  endfacet
  facet normal -0.461233 0.635253 0.619449
    outer loop
      vertex -1.94317 -4.74774 8
      vertex -9.22411 -2.23319 0
      vertex -9.77876 -2.6359 0
    endloop
  endfacet
  facet normal -0.290302 0.816065 0.499762
    outer loop
      vertex -1.94317 -4.74774 8
      vertex -9.77876 -2.6359 0
      vertex -3.73172 -5.38399 8
    endloop
  endfacet
  facet normal -0.290302 0.816065 0.499762
    outer loop
      vertex -3.73172 -5.38399 8
      vertex -9.77876 -2.6359 0
      vertex -10.1721 -2.77582 0
    endloop
  endfacet
  facet normal -0.290302 0.816066 0.499762
    outer loop
      vertex -3.73172 -5.38399 8
      vertex -10.1721 -2.77582 0
      vertex -3.92534 -5.45287 8
    endloop
  endfacet
  facet normal -0.290302 0.816066 0.499762
    outer loop
      vertex -3.92534 -5.45287 8
      vertex -10.1721 -2.77582 0
      vertex -10.8792 -3.02738 0
    endloop
  endfacet
  facet normal -0.0845672 0.930765 0.355705
    outer loop
      vertex -3.92534 -5.45287 8
      vertex -10.8792 -3.02738 0
      vertex -5.70424 -5.6145 8
    endloop
  endfacet
  facet normal -0.0845672 0.930765 0.355705
    outer loop
      vertex -5.70424 -5.6145 8
      vertex -10.8792 -3.02738 0
      vertex -11.2184 -3.05819 0
    endloop
  endfacet
  facet normal -0.0845676 0.930764 0.355705
    outer loop
      vertex -5.70424 -5.6145 8
      vertex -11.2184 -3.05819 0
      vertex -5.97558 -5.63915 8
    endloop
  endfacet
  facet normal -0.0845676 0.930764 0.355705
    outer loop
      vertex -5.97558 -5.63915 8
      vertex -11.2184 -3.05819 0
      vertex -12.0175 -3.1308 0
    endloop
  endfacet
  facet normal 0.139305 0.970059 0.198948
    outer loop
      vertex -5.97558 -5.63915 8
      vertex -12.0175 -3.1308 0
      vertex -7.90649 -5.36186 8
    endloop
  endfacet
  facet normal 0.139305 0.970059 0.198948
    outer loop
      vertex -7.90649 -5.36186 8
      vertex -12.0175 -3.1308 0
      vertex -13.0895 -2.97685 0
    endloop
  endfacet
  facet normal 0.363177 0.930765 0.0421909
    outer loop
      vertex -7.90649 -5.36186 8
      vertex -13.0895 -2.97685 0
      vertex -9.24225 -4.84066 8
    endloop
  endfacet
  facet normal 0.363177 0.930765 0.0421909
    outer loop
      vertex -9.24225 -4.84066 8
      vertex -13.0895 -2.97685 0
      vertex -13.2407 -2.91787 0
    endloop
  endfacet
  facet normal 0.363177 0.930764 0.0421907
    outer loop
      vertex -9.24225 -4.84066 8
      vertex -13.2407 -2.91787 0
      vertex -9.58871 -4.70547 8
    endloop
  endfacet
  facet normal 0.363177 0.930764 0.0421907
    outer loop
      vertex -9.58871 -4.70547 8
      vertex -13.2407 -2.91787 0
      vertex -14.0235 -2.61243 0
    endloop
  endfacet
  facet normal 0.568912 0.816065 -0.101866
    outer loop
      vertex -9.58871 -4.70547 8
      vertex -14.0235 -2.61243 0
      vertex -10.6186 -3.9875 8
    endloop
  endfacet
  facet normal 0.568912 0.816065 -0.101866
    outer loop
      vertex -10.6186 -3.9875 8
      vertex -14.0235 -2.61243 0
      vertex -14.0951 -2.5625 0
    endloop
  endfacet
  facet normal 0.568912 0.816066 -0.101866
    outer loop
      vertex -10.9437 -3.76089 8
      vertex -10.6186 -3.9875 8
      vertex -13.832 -2.5 1.97023
    endloop
  endfacet
  facet normal 0.568912 0.816066 -0.101866
    outer loop
      vertex -13.832 -2.5 1.97023
      vertex -10.6186 -3.9875 8
      vertex -14.0951 -2.5625 0
    endloop
  endfacet
  facet normal 0.568912 0.816066 -0.101866
    outer loop
      vertex -13.832 -2.5 1.97023
      vertex -14.0951 -2.5625 0
      vertex -14.1848 -2.5 0
    endloop
  endfacet
  facet normal 0.862122 0.402977 -0.307174
    outer loop
      vertex -11.982 -2.5 8
      vertex -11.9292 -2.61313 8
      vertex -12.2595 -2.5 7.22139
    endloop
  endfacet
  facet normal 0.739843 0.635254 -0.221553
    outer loop
      vertex -13.2048 -2.5 4.06458
      vertex -11.6645 -2.92134 8
      vertex -10.9437 -3.76089 8
    endloop
  endfacet
  facet normal 0.739843 0.635254 -0.221553
    outer loop
      vertex -13.832 -2.5 1.97023
      vertex -13.2048 -2.5 4.06458
      vertex -10.9437 -3.76089 8
    endloop
  endfacet
  facet normal 0.739843 0.635253 -0.221553
    outer loop
      vertex -12.2595 -2.5 7.22139
      vertex -11.9292 -2.61313 8
      vertex -11.6645 -2.92134 8
    endloop
  endfacet
  facet normal 0.739843 0.635253 -0.221553
    outer loop
      vertex -13.2048 -2.5 4.06458
      vertex -12.2595 -2.5 7.22139
      vertex -11.6645 -2.92134 8
    endloop
  endfacet
  facet normal 0.568912 -0.816065 -0.101866
    outer loop
      vertex -9.90902 4.48218 8
      vertex -10.9437 3.76089 8
      vertex -13.832 2.5 1.97023
    endloop
  endfacet
  facet normal 0.568912 -0.816065 -0.101866
    outer loop
      vertex -13.9482 2.5 1.32113
      vertex -9.90902 4.48218 8
      vertex -13.832 2.5 1.97023
    endloop
  endfacet
  facet normal 0.739843 -0.635253 -0.221553
    outer loop
      vertex -10.9437 3.76089 8
      vertex -11.2076 3.45344 8
      vertex -13.1631 2.5 4.20367
    endloop
  endfacet
  facet normal 0.739843 -0.635253 -0.221553
    outer loop
      vertex -13.832 2.5 1.97023
      vertex -10.9437 3.76089 8
      vertex -13.1631 2.5 4.20367
    endloop
  endfacet
  facet normal 0.739843 -0.635254 -0.221553
    outer loop
      vertex -11.2076 3.45344 8
      vertex -11.9292 2.61313 8
      vertex -12.2595 2.5 7.22139
    endloop
  endfacet
  facet normal 0.739843 -0.635254 -0.221553
    outer loop
      vertex -13.1631 2.5 4.20367
      vertex -11.2076 3.45344 8
      vertex -12.2595 2.5 7.22139
    endloop
  endfacet
  facet normal 0.862122 -0.402977 -0.307174
    outer loop
      vertex -11.9292 2.61313 8
      vertex -11.982 2.5 8
      vertex -12.2595 2.5 7.22139
    endloop
  endfacet
  facet normal 0.35009 0.270598 0.89678
    outer loop
      vertex -2.20498 0 1.74444
      vertex -1.71366 0 1.55263
      vertex -1.80946 0.57735 1.41582
    endloop
  endfacet
  facet normal 0.35009 0.270598 0.89678
    outer loop
      vertex -9.17834 7 2.35453
      vertex -2.20498 0 1.74444
      vertex -8.20767 7 1.97559
    endloop
  endfacet
  facet normal 0.35009 0.270598 0.89678
    outer loop
      vertex -8.20767 7 1.97559
      vertex -2.20498 0 1.74444
      vertex -1.80946 0.57735 1.41582
    endloop
  endfacet
  facet normal -0.189047 -0.270598 0.943948
    outer loop
      vertex -1.80946 0.57735 1.41582
      vertex -1.61548 1.40825 1.69286
      vertex -7.18595 7 2.18021
    endloop
  endfacet
  facet normal -0.189047 -0.270598 0.943948
    outer loop
      vertex -8.20767 7 1.97559
      vertex -1.80946 0.57735 1.41582
      vertex -7.18595 7 2.18021
    endloop
  endfacet
  facet normal -0.617443 -0.653282 0.438164
    outer loop
      vertex -1.61548 1.40825 1.69286
      vertex -1.14715 1.41421 2.3617
      vertex -6.71168 7 2.84853
    endloop
  endfacet
  facet normal -0.617443 -0.653282 0.438164
    outer loop
      vertex -7.18595 7 2.18021
      vertex -1.61548 1.40825 1.69286
      vertex -6.71168 7 2.84853
    endloop
  endfacet
  facet normal -0.684149 -0.653282 -0.32429
    outer loop
      vertex -1.14715 1.41421 2.3617
      vertex -1.08552 1 3.06611
      vertex -6.71168 7 2.84853
    endloop
  endfacet
  facet normal -0.684149 -0.653282 -0.32429
    outer loop
      vertex -6.71168 7 2.84853
      vertex -1.08552 1 3.06611
      vertex -7.06269 7 3.58905
    endloop
  endfacet
  facet normal 0.617443 -0.653282 -0.438164
    outer loop
      vertex -0.67883 1.40825 3.03053
      vertex -1.08552 1 3.06611
      vertex -1.14715 1.41421 2.3617
    endloop
  endfacet
  facet normal 0.189047 -0.270598 -0.943948
    outer loop
      vertex -0.484844 0.57735 3.30757
      vertex -1.06 0 3.35789
      vertex -0.67883 1.40825 3.03053
    endloop
  endfacet
  facet normal 0.189047 -0.270598 -0.943948
    outer loop
      vertex -0.67883 1.40825 3.03053
      vertex -1.06 0 3.35789
      vertex -1.08552 1 3.06611
    endloop
  endfacet
  facet normal -0.35009 0.270598 -0.89678
    outer loop
      vertex -0.484844 0.57735 3.30757
      vertex -0.580642 0 3.17076
      vertex -1.06 0 3.35789
    endloop
  endfacet
  facet normal -0.35009 -0.270598 -0.89678
    outer loop
      vertex -0.580642 0 3.17076
      vertex -0.484844 -0.57735 3.30757
      vertex -1.06 0 3.35789
    endloop
  endfacet
  facet normal 0.189047 0.270598 -0.943948
    outer loop
      vertex -0.484844 -0.57735 3.30757
      vertex -0.67883 -1.40825 3.03053
      vertex -1.06 0 3.35789
    endloop
  endfacet
  facet normal 0.189047 0.270598 -0.943948
    outer loop
      vertex -1.06 0 3.35789
      vertex -0.67883 -1.40825 3.03053
      vertex -1.08552 -1 3.06611
    endloop
  endfacet
  facet normal 0.617443 0.653282 -0.438164
    outer loop
      vertex -1.08552 -1 3.06611
      vertex -0.67883 -1.40825 3.03053
      vertex -1.14715 -1.41421 2.3617
    endloop
  endfacet
  facet normal 0.684149 0.653282 0.32429
    outer loop
      vertex -2.55598 0 2.48495
      vertex -2.20498 0 1.74444
      vertex -9.17834 7 2.35453
    endloop
  endfacet
  facet normal 0.684149 0.653282 0.32429
    outer loop
      vertex -9.52935 7 3.09504
      vertex -2.55598 0 2.48495
      vertex -9.17834 7 2.35453
    endloop
  endfacet
  facet normal 0.617443 0.653282 -0.438164
    outer loop
      vertex -2.08172 0 3.15327
      vertex -2.55598 0 2.48495
      vertex -9.05508 7 3.76336
    endloop
  endfacet
  facet normal 0.617443 0.653282 -0.438164
    outer loop
      vertex -9.05508 7 3.76336
      vertex -2.55598 0 2.48495
      vertex -9.52935 7 3.09504
    endloop
  endfacet
  facet normal -0.35009 -0.270598 -0.89678
    outer loop
      vertex -1.08552 1 3.06611
      vertex -1.06 0 3.35789
      vertex -7.06269 7 3.58905
    endloop
  endfacet
  facet normal -0.35009 -0.270598 -0.89678
    outer loop
      vertex -7.06269 7 3.58905
      vertex -1.06 0 3.35789
      vertex -8.03336 7 3.96798
    endloop
  endfacet
  facet normal 0.189047 0.270598 -0.943948
    outer loop
      vertex -1.06 0 3.35789
      vertex -2.08172 0 3.15327
      vertex -8.03336 7 3.96798
    endloop
  endfacet
  facet normal 0.189047 0.270598 -0.943948
    outer loop
      vertex -8.03336 7 3.96798
      vertex -2.08172 0 3.15327
      vertex -9.05508 7 3.76336
    endloop
  endfacet
  facet normal 0.984808 -9.384e-017 -0.173648
    outer loop
      vertex -22.3149 7 4.48743
      vertex -22.2604 7 4.79643
      vertex -22.2604 2.5 4.79643
    endloop
  endfacet
  facet normal 0.984808 -9.384e-017 -0.173648
    outer loop
      vertex -22.3149 2.5 4.48743
      vertex -22.3149 7 4.48743
      vertex -22.2604 2.5 4.79643
    endloop
  endfacet
  facet normal 1 -1.2736e-016 1.53889e-007
    outer loop
      vertex -22.3149 2.5 4.17367
      vertex -22.3149 7 4.17367
      vertex -22.3149 7 4.48743
    endloop
  endfacet
  facet normal 1 -1.2736e-016 1.53889e-007
    outer loop
      vertex -22.3149 2.5 4.48743
      vertex -22.3149 2.5 4.17367
      vertex -22.3149 7 4.48743
    endloop
  endfacet
  facet normal 0.939693 -5.74693e-017 -0.34202
    outer loop
      vertex -22.2604 7 4.79643
      vertex -22.1531 7 5.09126
      vertex -22.1531 2.5 5.09126
    endloop
  endfacet
  facet normal 0.939693 -5.74693e-017 -0.34202
    outer loop
      vertex -22.2604 2.5 4.79643
      vertex -22.2604 7 4.79643
      vertex -22.1531 2.5 5.09126
    endloop
  endfacet
  facet normal 0.866025 -1.93524e-017 -0.5
    outer loop
      vertex -22.1531 7 5.09126
      vertex -21.9962 7 5.36299
      vertex -21.9962 2.5 5.36299
    endloop
  endfacet
  facet normal 0.866025 -1.93524e-017 -0.5
    outer loop
      vertex -22.1531 2.5 5.09126
      vertex -22.1531 7 5.09126
      vertex -21.9962 2.5 5.36299
    endloop
  endfacet
  facet normal 0.766045 1.93524e-017 -0.642787
    outer loop
      vertex -21.9962 7 5.36299
      vertex -21.7945 7 5.60334
      vertex -21.7945 2.5 5.60334
    endloop
  endfacet
  facet normal 0.766045 1.93524e-017 -0.642787
    outer loop
      vertex -21.9962 2.5 5.36299
      vertex -21.9962 7 5.36299
      vertex -21.7945 2.5 5.60334
    endloop
  endfacet
  facet normal 0.642788 5.74693e-017 -0.766044
    outer loop
      vertex -21.5542 7 5.80502
      vertex -21.5542 2.5 5.80502
      vertex -21.7945 7 5.60334
    endloop
  endfacet
  facet normal 0.642788 5.74693e-017 -0.766044
    outer loop
      vertex -21.7945 7 5.60334
      vertex -21.5542 2.5 5.80502
      vertex -21.7945 2.5 5.60334
    endloop
  endfacet
  facet normal 0.5 9.384e-017 -0.866025
    outer loop
      vertex -21.2824 7 5.96191
      vertex -21.2824 2.5 5.96191
      vertex -21.5542 7 5.80502
    endloop
  endfacet
  facet normal 0.5 9.384e-017 -0.866025
    outer loop
      vertex -21.5542 7 5.80502
      vertex -21.2824 2.5 5.96191
      vertex -21.5542 2.5 5.80502
    endloop
  endfacet
  facet normal 0.34202 1.2736e-016 -0.939693
    outer loop
      vertex -20.9876 7 6.06922
      vertex -20.9876 2.5 6.06922
      vertex -21.2824 7 5.96191
    endloop
  endfacet
  facet normal 0.34202 1.2736e-016 -0.939693
    outer loop
      vertex -21.2824 7 5.96191
      vertex -20.9876 2.5 6.06922
      vertex -21.2824 2.5 5.96191
    endloop
  endfacet
  facet normal 0.173648 1.57009e-016 -0.984808
    outer loop
      vertex -20.6786 7 6.1237
      vertex -20.6786 2.5 6.1237
      vertex -20.9876 7 6.06922
    endloop
  endfacet
  facet normal 0.173648 1.57009e-016 -0.984808
    outer loop
      vertex -20.9876 7 6.06922
      vertex -20.6786 2.5 6.1237
      vertex -20.9876 2.5 6.06922
    endloop
  endfacet
  facet normal 1.53889e-007 1.81888e-016 -1
    outer loop
      vertex -20.3648 7 6.1237
      vertex -20.3648 2.5 6.1237
      vertex -20.6786 7 6.1237
    endloop
  endfacet
  facet normal 1.53889e-007 1.81888e-016 -1
    outer loop
      vertex -20.6786 7 6.1237
      vertex -20.3648 2.5 6.1237
      vertex -20.6786 2.5 6.1237
    endloop
  endfacet
  facet normal -0.173648 2.01241e-016 -0.984808
    outer loop
      vertex -20.0558 7 6.06922
      vertex -20.0558 2.5 6.06922
      vertex -20.3648 7 6.1237
    endloop
  endfacet
  facet normal -0.173648 2.01241e-016 -0.984808
    outer loop
      vertex -20.3648 7 6.1237
      vertex -20.0558 2.5 6.06922
      vertex -20.3648 2.5 6.1237
    endloop
  endfacet
  facet normal -0.34202 2.14479e-016 -0.939693
    outer loop
      vertex -19.761 7 5.96191
      vertex -19.761 2.5 5.96191
      vertex -20.0558 7 6.06922
    endloop
  endfacet
  facet normal -0.34202 2.14479e-016 -0.939693
    outer loop
      vertex -20.0558 7 6.06922
      vertex -19.761 2.5 5.96191
      vertex -20.0558 2.5 6.06922
    endloop
  endfacet
  facet normal -0.5 2.212e-016 -0.866025
    outer loop
      vertex -19.4893 7 5.80502
      vertex -19.4893 2.5 5.80502
      vertex -19.761 7 5.96191
    endloop
  endfacet
  facet normal -0.5 2.212e-016 -0.866025
    outer loop
      vertex -19.761 7 5.96191
      vertex -19.4893 2.5 5.80502
      vertex -19.761 2.5 5.96191
    endloop
  endfacet
  facet normal -0.642787 2.212e-016 -0.766045
    outer loop
      vertex -19.2489 7 5.60334
      vertex -19.2489 2.5 5.60334
      vertex -19.4893 7 5.80502
    endloop
  endfacet
  facet normal -0.642787 2.212e-016 -0.766045
    outer loop
      vertex -19.4893 7 5.80502
      vertex -19.2489 2.5 5.60334
      vertex -19.4893 2.5 5.80502
    endloop
  endfacet
  facet normal -0.766044 2.14479e-016 -0.642788
    outer loop
      vertex -19.0472 7 5.36299
      vertex -19.0472 2.5 5.36299
      vertex -19.2489 7 5.60334
    endloop
  endfacet
  facet normal -0.766044 2.14479e-016 -0.642788
    outer loop
      vertex -19.2489 7 5.60334
      vertex -19.0472 2.5 5.36299
      vertex -19.2489 2.5 5.60334
    endloop
  endfacet
  facet normal -0.866025 2.01241e-016 -0.5
    outer loop
      vertex -18.8904 7 5.09126
      vertex -18.8904 2.5 5.09126
      vertex -19.0472 7 5.36299
    endloop
  endfacet
  facet normal -0.866025 2.01241e-016 -0.5
    outer loop
      vertex -19.0472 7 5.36299
      vertex -18.8904 2.5 5.09126
      vertex -19.0472 2.5 5.36299
    endloop
  endfacet
  facet normal -0.939693 1.81888e-016 -0.34202
    outer loop
      vertex -18.783 7 4.79643
      vertex -18.783 2.5 4.79643
      vertex -18.8904 7 5.09126
    endloop
  endfacet
  facet normal -0.939693 1.81888e-016 -0.34202
    outer loop
      vertex -18.8904 7 5.09126
      vertex -18.783 2.5 4.79643
      vertex -18.8904 2.5 5.09126
    endloop
  endfacet
  facet normal -0.984808 1.57009e-016 -0.173648
    outer loop
      vertex -18.7286 7 4.48743
      vertex -18.7286 2.5 4.48743
      vertex -18.783 7 4.79643
    endloop
  endfacet
  facet normal -0.984808 1.57009e-016 -0.173648
    outer loop
      vertex -18.783 7 4.79643
      vertex -18.7286 2.5 4.48743
      vertex -18.783 2.5 4.79643
    endloop
  endfacet
  facet normal -1 1.2736e-016 -1.53889e-007
    outer loop
      vertex -18.7286 7 4.17367
      vertex -18.7286 2.5 4.17367
      vertex -18.7286 7 4.48743
    endloop
  endfacet
  facet normal -1 1.2736e-016 -1.53889e-007
    outer loop
      vertex -18.7286 7 4.48743
      vertex -18.7286 2.5 4.17367
      vertex -18.7286 2.5 4.48743
    endloop
  endfacet
  facet normal -0.984808 9.384e-017 0.173648
    outer loop
      vertex -18.7286 7 4.17367
      vertex -18.783 7 3.86468
      vertex -18.7286 2.5 4.17367
    endloop
  endfacet
  facet normal -0.984808 9.384e-017 0.173648
    outer loop
      vertex -18.7286 2.5 4.17367
      vertex -18.783 7 3.86468
      vertex -18.783 2.5 3.86468
    endloop
  endfacet
  facet normal -0.939693 5.74693e-017 0.34202
    outer loop
      vertex -18.783 7 3.86468
      vertex -18.8904 7 3.56984
      vertex -18.783 2.5 3.86468
    endloop
  endfacet
  facet normal -0.939693 5.74693e-017 0.34202
    outer loop
      vertex -18.783 2.5 3.86468
      vertex -18.8904 7 3.56984
      vertex -18.8904 2.5 3.56984
    endloop
  endfacet
  facet normal -0.866025 1.93524e-017 0.5
    outer loop
      vertex -18.8904 7 3.56984
      vertex -19.0472 7 3.29811
      vertex -18.8904 2.5 3.56984
    endloop
  endfacet
  facet normal -0.866025 1.93524e-017 0.5
    outer loop
      vertex -18.8904 2.5 3.56984
      vertex -19.0472 7 3.29811
      vertex -19.0472 2.5 3.29811
    endloop
  endfacet
  facet normal -0.766045 -1.93524e-017 0.642787
    outer loop
      vertex -19.0472 7 3.29811
      vertex -19.2489 7 3.05776
      vertex -19.0472 2.5 3.29811
    endloop
  endfacet
  facet normal -0.766045 -1.93524e-017 0.642787
    outer loop
      vertex -19.0472 2.5 3.29811
      vertex -19.2489 7 3.05776
      vertex -19.2489 2.5 3.05776
    endloop
  endfacet
  facet normal -0.642788 -5.74693e-017 0.766044
    outer loop
      vertex -19.2489 2.5 3.05776
      vertex -19.2489 7 3.05776
      vertex -19.4893 7 2.85608
    endloop
  endfacet
  facet normal -0.642788 -5.74693e-017 0.766044
    outer loop
      vertex -19.4893 2.5 2.85608
      vertex -19.2489 2.5 3.05776
      vertex -19.4893 7 2.85608
    endloop
  endfacet
  facet normal -0.5 -9.384e-017 0.866025
    outer loop
      vertex -19.4893 2.5 2.85608
      vertex -19.4893 7 2.85608
      vertex -19.761 7 2.6992
    endloop
  endfacet
  facet normal -0.5 -9.384e-017 0.866025
    outer loop
      vertex -19.761 2.5 2.6992
      vertex -19.4893 2.5 2.85608
      vertex -19.761 7 2.6992
    endloop
  endfacet
  facet normal -0.34202 -1.2736e-016 0.939693
    outer loop
      vertex -19.761 2.5 2.6992
      vertex -19.761 7 2.6992
      vertex -20.0558 7 2.59188
    endloop
  endfacet
  facet normal -0.34202 -1.2736e-016 0.939693
    outer loop
      vertex -20.0558 2.5 2.59188
      vertex -19.761 2.5 2.6992
      vertex -20.0558 7 2.59188
    endloop
  endfacet
  facet normal -0.173648 -1.57009e-016 0.984808
    outer loop
      vertex -20.0558 2.5 2.59188
      vertex -20.0558 7 2.59188
      vertex -20.3648 7 2.5374
    endloop
  endfacet
  facet normal -0.173648 -1.57009e-016 0.984808
    outer loop
      vertex -20.3648 2.5 2.5374
      vertex -20.0558 2.5 2.59188
      vertex -20.3648 7 2.5374
    endloop
  endfacet
  facet normal -1.53889e-007 -1.81888e-016 1
    outer loop
      vertex -20.3648 2.5 2.5374
      vertex -20.3648 7 2.5374
      vertex -20.6786 7 2.5374
    endloop
  endfacet
  facet normal -1.53889e-007 -1.81888e-016 1
    outer loop
      vertex -20.6786 2.5 2.5374
      vertex -20.3648 2.5 2.5374
      vertex -20.6786 7 2.5374
    endloop
  endfacet
  facet normal 0.173648 -2.01241e-016 0.984808
    outer loop
      vertex -20.6786 2.5 2.5374
      vertex -20.6786 7 2.5374
      vertex -20.9876 7 2.59188
    endloop
  endfacet
  facet normal 0.173648 -2.01241e-016 0.984808
    outer loop
      vertex -20.9876 2.5 2.59188
      vertex -20.6786 2.5 2.5374
      vertex -20.9876 7 2.59188
    endloop
  endfacet
  facet normal 0.34202 -2.14479e-016 0.939693
    outer loop
      vertex -20.9876 2.5 2.59188
      vertex -20.9876 7 2.59188
      vertex -21.2824 7 2.6992
    endloop
  endfacet
  facet normal 0.34202 -2.14479e-016 0.939693
    outer loop
      vertex -21.2824 2.5 2.6992
      vertex -20.9876 2.5 2.59188
      vertex -21.2824 7 2.6992
    endloop
  endfacet
  facet normal 0.5 -2.212e-016 0.866025
    outer loop
      vertex -21.2824 2.5 2.6992
      vertex -21.2824 7 2.6992
      vertex -21.5542 7 2.85608
    endloop
  endfacet
  facet normal 0.5 -2.212e-016 0.866025
    outer loop
      vertex -21.5542 2.5 2.85608
      vertex -21.2824 2.5 2.6992
      vertex -21.5542 7 2.85608
    endloop
  endfacet
  facet normal 0.642787 -2.212e-016 0.766045
    outer loop
      vertex -21.5542 2.5 2.85608
      vertex -21.5542 7 2.85608
      vertex -21.7945 7 3.05776
    endloop
  endfacet
  facet normal 0.642787 -2.212e-016 0.766045
    outer loop
      vertex -21.7945 2.5 3.05776
      vertex -21.5542 2.5 2.85608
      vertex -21.7945 7 3.05776
    endloop
  endfacet
  facet normal 0.766044 -2.14479e-016 0.642788
    outer loop
      vertex -21.7945 2.5 3.05776
      vertex -21.7945 7 3.05776
      vertex -21.9962 7 3.29811
    endloop
  endfacet
  facet normal 0.766044 -2.14479e-016 0.642788
    outer loop
      vertex -21.9962 2.5 3.29811
      vertex -21.7945 2.5 3.05776
      vertex -21.9962 7 3.29811
    endloop
  endfacet
  facet normal 0.866025 -2.01241e-016 0.5
    outer loop
      vertex -21.9962 2.5 3.29811
      vertex -21.9962 7 3.29811
      vertex -22.1531 7 3.56984
    endloop
  endfacet
  facet normal 0.866025 -2.01241e-016 0.5
    outer loop
      vertex -22.1531 2.5 3.56984
      vertex -21.9962 2.5 3.29811
      vertex -22.1531 7 3.56984
    endloop
  endfacet
  facet normal 0.939693 -1.81888e-016 0.34202
    outer loop
      vertex -22.1531 2.5 3.56984
      vertex -22.1531 7 3.56984
      vertex -22.2604 7 3.86468
    endloop
  endfacet
  facet normal 0.939693 -1.81888e-016 0.34202
    outer loop
      vertex -22.2604 2.5 3.86468
      vertex -22.1531 2.5 3.56984
      vertex -22.2604 7 3.86468
    endloop
  endfacet
  facet normal 0.984808 -1.57009e-016 0.173648
    outer loop
      vertex -22.2604 2.5 3.86468
      vertex -22.2604 7 3.86468
      vertex -22.3149 7 4.17367
    endloop
  endfacet
  facet normal 0.984808 -1.57009e-016 0.173648
    outer loop
      vertex -22.3149 2.5 4.17367
      vertex -22.2604 2.5 3.86468
      vertex -22.3149 7 4.17367
    endloop
  endfacet
endsolid OpenSCAD_Model
